<?xml version="1.0" encoding="UTF-8"?>
<?xml-stylesheet href="https://assets.antv.antgroup.com/AlibabaPuHuiTi-Regular/result.css" type="text/css"?>
<?xml-stylesheet href="https://assets.antv.antgroup.com/AlibabaPuHuiTi-Bold/result.css" type="text/css"?>
<svg height="274" width="740" style="" font-family="Alibaba PuHuiTi" xmlns="http://www.w3.org/2000/svg" viewBox="-20 -20 740 274"><defs /><defs id="infographic-defs"><symbol id="rsc-1777736299" xmlns="http://www.w3.org/2000/svg" fill="none" stroke="currentColor" stroke-linecap="round" stroke-linejoin="round" stroke-width="2" viewBox="0 0 24 24"><path d="M11 12a1 1 0 1 0 2 0 1 1 0 1 0-2 0" /><path d="M7 12a5 5 0 1 0 10 0 5 5 0 1 0-10 0" /><path d="M3 12a9 9 0 1 0 18 0 9 9 0 1 0-18 0" /></symbol><symbol id="rsc-76406866" xmlns="http://www.w3.org/2000/svg" viewBox="0 0 512 512">
  <g id="Mars_1_">
    <path d="M256 512c-140.96 0-256-115.05-256-256 0-140.96 115.05-256 256-256 140.96 0 256 115.05 256 256 0 140.96-115.05 256-256 256zm0-482c-124.62 0-226 101.38-226 226s101.38 226 226 226 226-101.38 226-226-101.38-226-226-226z" />
    <path d="M256 271c-57.9 0-105-47.1-105-105a105.25 105.25 0 0 1 69.99-99 15 15 0 1 1 10.02 28.28 75.2 75.2 0 0 0-50.01 70.72c0 41.36 33.65 75 75 75s75-33.65 75-75a75.2 75.2 0 0 0-50.01-70.72 15 15 0 1 1 10.02-28.28 105.24 105.24 0 0 1 69.99 99c0 57.9-47.1 105-105 105z" />
    <path d="M256 211c-24.81 0-45-20.19-45-45s20.19-45 45-45 45 20.19 45 45-20.19 45-45 45zm0-60c-8.27 0-15 6.73-15 15s6.73 15 15 15 15-6.73 15-15-6.73-15-15-15z" />
    <circle cx="166" cy="346" r="15" />
    <path d="M166 421a75.27 75.27 0 0 1-64.96-37.49 15 15 0 0 1 25.97-15.02 45.18 45.18 0 0 0 38.99 22.51c24.81 0 45-20.19 45-45s-20.19-45-45-45a45.18 45.18 0 0 0-38.99 22.51 15 15 0 0 1-25.97-15.02 75.27 75.27 0 0 1 64.96-37.49c41.36 0 75 33.65 75 75s-33.65 75-75 75z" />
    <path d="M361 391c-33.08 0-60-26.92-60-60s26.92-60 60-60a15 15 0 0 1 0 30c-16.54 0-30 13.46-30 30s13.46 30 30 30 30-13.46 30-30a15 15 0 0 1 30 0c0 33.08-26.92 60-60 60z" />
    <circle cx="406" cy="226" r="15" />
    <circle cx="106" cy="166" r="15" />
    <circle cx="256" cy="436" r="15" />
  </g>
</symbol></defs><g id="infographic-container"><g transform="translate(177.5, 0)"><g><foreignObject height="34" width="345" y="0" x="0" overflow="visible"><span style="overflow:visible;color:#262626;font-size:24px;line-height:1.4;width:100%;height:100%;display:flex;flex-wrap:wrap;word-break:break-word;white-space:pre-wrap;text-align:center;justify-content:center;align-content:flex-start;align-items:flex-start" xmlns="http://www.w3.org/1999/xhtml">Chọn giải pháp theo quy mô</span></foreignObject></g></g><g transform="translate(0, 34)"><g><g><g><g><foreignObject height="40" width="140" y="0" x="0" overflow="visible"><span style="overflow:visible;color:#5a5a5a;font-size:14px;line-height:1.4;width:100%;height:100%;display:flex;flex-wrap:wrap;word-break:break-word;white-space:pre-wrap;text-align:center;justify-content:center;align-content:flex-end;align-items:flex-end" xmlns="http://www.w3.org/1999/xhtml">Odoo 18 hoặc Base.vn, 1Office</span></foreignObject></g><g transform="translate(0, 40)"><foreignObject height="20" width="140" y="0" x="0" overflow="visible"><span style="overflow:visible;color:#262626;font-weight:bold;font-size:14px;line-height:1.4;width:100%;height:100%;display:flex;flex-wrap:wrap;word-break:break-word;white-space:pre-wrap;text-align:center;justify-content:center;align-content:flex-end;align-items:flex-end" xmlns="http://www.w3.org/1999/xhtml">Dưới 200 NS</span></foreignObject></g><g transform="translate(66, 65)"><ellipse width="8" height="8" fill="#10b981" y="22" cx="4" cy="26" rx="4" ry="4" /><path d="M4,0 L4,22" stroke-width="2" stroke="#10b981" /></g><g transform="translate(0, 95)"><polygon width="140" height="30" fill="#10b981" points="0,0 130,0 140,15 130,30 0,30 10,15" /><g><text width="140" height="30" x="70" y="15" fill="#ffffff" font-size="16" text-anchor="middle" dominant-baseline="central" font-weight="bold">01</text></g></g><g transform="translate(45, 150)"><ellipse width="50" height="50" fill="#10b981" cx="25" cy="25" rx="25" ry="25" /><use style="color:#ffffff" href="#rsc-1889773806" fill="#ffffff" height="31.819805153394633" width="31.819805153394633" y="9.090097423302684" x="9.090097423302684" /></g></g></g><g transform="translate(140, 0)"><g><g transform="translate(45, 20)"><ellipse width="50" height="50" fill="#f59e0b" cx="25" cy="25" rx="25" ry="25" /><use style="color:#ffffff" href="#rsc-1009718826" fill="#ffffff" height="31.819805153394633" width="31.819805153394633" y="9.090097423302684" x="9.090097423302684" /></g><g transform="translate(0, 95)"><polygon width="140" height="30" fill="#f59e0b" points="0,0 130,0 140,15 130,30 0,30 10,15" /><g><text width="140" height="30" x="70" y="15" fill="#ffffff" font-size="16" text-anchor="middle" dominant-baseline="central" font-weight="bold">02</text></g></g><g transform="translate(66, 125)"><ellipse width="8" height="8" fill="#f59e0b" y="22" cx="4" cy="26" rx="4" ry="4" /><path d="M4,0 L4,22" stroke-width="2" stroke="#f59e0b" /></g><g transform="translate(0, 160)"><foreignObject height="20" width="140" y="0" x="0" overflow="visible"><span style="overflow:visible;color:#262626;font-weight:bold;font-size:14px;line-height:1.4;width:100%;height:100%;display:flex;flex-wrap:wrap;word-break:break-word;white-space:pre-wrap;text-align:center;justify-content:center;align-content:flex-start;align-items:flex-start" xmlns="http://www.w3.org/1999/xhtml">200–500 NS</span></foreignObject></g><g transform="translate(0, 180)"><foreignObject height="40" width="140" y="0" x="0" overflow="visible"><span style="overflow:visible;color:#5a5a5a;font-size:14px;line-height:1.4;width:100%;height:100%;display:flex;flex-wrap:wrap;word-break:break-word;white-space:pre-wrap;text-align:center;justify-content:center;align-content:flex-start;align-items:flex-start" xmlns="http://www.w3.org/1999/xhtml">Odoo có rủi ro, cần đánh giá kỹ</span></foreignObject></g></g></g><g transform="translate(280, 0)"><g><g><foreignObject height="40" width="140" y="0" x="0" overflow="visible"><span style="overflow:visible;color:#5a5a5a;font-size:14px;line-height:1.4;width:100%;height:100%;display:flex;flex-wrap:wrap;word-break:break-word;white-space:pre-wrap;text-align:center;justify-content:center;align-content:flex-end;align-items:flex-end" xmlns="http://www.w3.org/1999/xhtml">Dead Zone — cần mid-market VN-first</span></foreignObject></g><g transform="translate(0, 40)"><foreignObject height="20" width="140" y="0" x="0" overflow="visible"><span style="overflow:visible;color:#262626;font-weight:bold;font-size:14px;line-height:1.4;width:100%;height:100%;display:flex;flex-wrap:wrap;word-break:break-word;white-space:pre-wrap;text-align:center;justify-content:center;align-content:flex-end;align-items:flex-end" xmlns="http://www.w3.org/1999/xhtml">500–2.000 NS</span></foreignObject></g><g transform="translate(66, 65)"><ellipse width="8" height="8" fill="#ef4444" y="22" cx="4" cy="26" rx="4" ry="4" /><path d="M4,0 L4,22" stroke-width="2" stroke="#ef4444" /></g><g transform="translate(0, 95)"><polygon width="140" height="30" fill="#ef4444" points="0,0 130,0 140,15 130,30 0,30 10,15" /><g><text width="140" height="30" x="70" y="15" fill="#ffffff" font-size="16" text-anchor="middle" dominant-baseline="central" font-weight="bold">03</text></g></g><g transform="translate(45, 150)"><ellipse width="50" height="50" fill="#ef4444" cx="25" cy="25" rx="25" ry="25" /><use style="color:#ffffff" href="#rsc-1777736299" fill="#ffffff" height="31.819805153394633" width="31.819805153394633" y="9.090097423302684" x="9.090097423302684" /></g></g></g><g transform="translate(420, 0)"><g><g transform="translate(45, 20)"><ellipse width="50" height="50" fill="#3b82f6" cx="25" cy="25" rx="25" ry="25" /><use style="color:#ffffff" href="#rsc-1471729781" fill="#ffffff" height="31.819805153394633" width="31.819805153394633" y="9.090097423302684" x="9.090097423302684" /></g><g transform="translate(0, 95)"><polygon width="140" height="30" fill="#3b82f6" points="0,0 130,0 140,15 130,30 0,30 10,15" /><g><text width="140" height="30" x="70" y="15" fill="#ffffff" font-size="16" text-anchor="middle" dominant-baseline="central" font-weight="bold">04</text></g></g><g transform="translate(66, 125)"><ellipse width="8" height="8" fill="#3b82f6" y="22" cx="4" cy="26" rx="4" ry="4" /><path d="M4,0 L4,22" stroke-width="2" stroke="#3b82f6" /></g><g transform="translate(0, 160)"><foreignObject height="20" width="140" y="0" x="0" overflow="visible"><span style="overflow:visible;color:#262626;font-weight:bold;font-size:14px;line-height:1.4;width:100%;height:100%;display:flex;flex-wrap:wrap;word-break:break-word;white-space:pre-wrap;text-align:center;justify-content:center;align-content:flex-start;align-items:flex-start" xmlns="http://www.w3.org/1999/xhtml">2.000–10.000 NS</span></foreignObject></g><g transform="translate(0, 180)"><foreignObject height="40" width="140" y="0" x="0" overflow="visible"><span style="overflow:visible;color:#5a5a5a;font-size:14px;line-height:1.4;width:100%;height:100%;display:flex;flex-wrap:wrap;word-break:break-word;white-space:pre-wrap;text-align:center;justify-content:center;align-content:flex-start;align-items:flex-start" xmlns="http://www.w3.org/1999/xhtml">Workday hoặc SAP SuccessFactors</span></foreignObject></g></g></g><g transform="translate(560, 0)"><g><g><foreignObject height="40" width="140" y="0" x="0" overflow="visible"><span style="overflow:visible;color:#5a5a5a;font-size:14px;line-height:1.4;width:100%;height:100%;display:flex;flex-wrap:wrap;word-break:break-word;white-space:pre-wrap;text-align:center;justify-content:center;align-content:flex-end;align-items:flex-end" xmlns="http://www.w3.org/1999/xhtml">SAP SF hoặc Workday — toàn cầu</span></foreignObject></g><g transform="translate(0, 40)"><foreignObject height="20" width="140" y="0" x="0" overflow="visible"><span style="overflow:visible;color:#262626;font-weight:bold;font-size:14px;line-height:1.4;width:100%;height:100%;display:flex;flex-wrap:wrap;word-break:break-word;white-space:pre-wrap;text-align:center;justify-content:center;align-content:flex-end;align-items:flex-end" xmlns="http://www.w3.org/1999/xhtml">10.000+ NS</span></foreignObject></g><g transform="translate(66, 65)"><ellipse width="8" height="8" fill="#8b5cf6" y="22" cx="4" cy="26" rx="4" ry="4" /><path d="M4,0 L4,22" stroke-width="2" stroke="#8b5cf6" /></g><g transform="translate(0, 95)"><polygon width="140" height="30" fill="#8b5cf6" points="0,0 130,0 140,15 130,30 0,30 10,15" /><g><text width="140" height="30" x="70" y="15" fill="#ffffff" font-size="16" text-anchor="middle" dominant-baseline="central" font-weight="bold">05</text></g></g><g transform="translate(45, 150)"><ellipse width="50" height="50" fill="#8b5cf6" cx="25" cy="25" rx="25" ry="25" /><use style="color:#ffffff" href="#rsc-76406866" fill="#ffffff" height="31.819805153394633" width="31.819805153394633" y="9.090097423302684" x="9.090097423302684" /></g></g></g></g></g></g></svg>