<?xml version="1.0" encoding="UTF-8"?>
<?xml-stylesheet href="https://assets.antv.antgroup.com/AlibabaPuHuiTi-Regular/result.css" type="text/css"?>
<?xml-stylesheet href="https://assets.antv.antgroup.com/AlibabaPuHuiTi-Bold/result.css" type="text/css"?>
<svg height="154" width="688" style="" font-family="Alibaba PuHuiTi" xmlns="http://www.w3.org/2000/svg" viewBox="-20 -20 688 154"><defs /><defs id="infographic-defs"><symbol id="rsc-1143145796" xmlns="http://www.w3.org/2000/svg" xmlns:xlink="http://www.w3.org/1999/xlink" xml:space="preserve" viewBox="0 0 512 512">
  <path d="M437.02 74.98c-48.35-48.35-112.64-74.98-181.02-74.98-68.38 0-132.67 26.63-181.02 74.98-48.35 48.35-74.98 112.64-74.98 181.02s26.63 132.67 74.98 181.02 112.64 74.98 181.02 74.98h100.42c52.56 0 95.33-42.77 95.33-95.33v-74.87h45.25a15 15 0 0 0 15-15v-70.8c0-68.38-26.63-132.67-74.98-181.02zm-.27 236.82a15 15 0 0 0-15 15v89.87a65.4 65.4 0 0 1-65.33 65.33h-100.42c-124.61 0-226-101.38-226-226s101.39-226 226-226c124.62 0 226 101.38 226 226v55.8h-45.25z" />
  <path d="M256 96.4c-88 0-159.6 71.6-159.6 159.6a15 15 0 0 0 15 15h289.2a15 15 0 0 0 15-15c0-88-71.6-159.6-159.6-159.6zm-128.74 144.6c7.46-64.42 62.35-114.6 128.74-114.6s121.28 50.18 128.74 114.6h-257.48z" />
</symbol><symbol id="rsc-1448739283" xmlns="http://www.w3.org/2000/svg" viewBox="0 0 512 512">
  <path d="M482.54 278.52h-33.05v-188.38a30.03 30.03 0 0 0-29.99-30h-48.8v-30.02a30.02 30.02 0 0 0-29.97-30h-231.9a30.02 30.02 0 0 0-29.98 30v30.03h-15.17a63.76 63.76 0 0 0-63.68 63.67v325.09a63.04 63.04 0 0 0 62.97 62.96h356.53a30.03 30.03 0 0 0 30-29.99v-90.98h33.04a29.5 29.5 0 0 0 29.46-29.46v-53.46a29.5 29.5 0 0 0-29.46-29.46zm-111.83-188.38h48.8v67.38h-48.8zm-261.88-60.02h231.9v127.4h-32.66v-67.38a30.02 30.02 0 0 0-29.98-30h-106.62a30.02 30.02 0 0 0-29.98 30v67.38h-32.66zm169.26 60.02v67.38h-106.62v-67.38zm-214.41 0h15.17v67.38h-15.17a33.73 33.73 0 0 1-33.69-33.7 33.72 33.72 0 0 1 33.69-33.68zm355.82 391.75h-356.53a33 33 0 0 1-32.98-32.98v-271.08c18.83 11.8 33.23 9.67 63.86 9.67h325.65v91.02h-32.92a29.5 29.5 0 0 0-29.46 29.46v53.45a29.5 29.5 0 0 0 29.46 29.46h32.92zm62.51-120.98c-11.68 0-86.3 0-94.9 0v-52.4h94.9z" />
</symbol><symbol id="rsc-1777736299" xmlns="http://www.w3.org/2000/svg" fill="none" stroke="currentColor" stroke-linecap="round" stroke-linejoin="round" stroke-width="2" viewBox="0 0 24 24"><path d="M11 12a1 1 0 1 0 2 0 1 1 0 1 0-2 0" /><path d="M7 12a5 5 0 1 0 10 0 5 5 0 1 0-10 0" /><path d="M3 12a9 9 0 1 0 18 0 9 9 0 1 0-18 0" /></symbol></defs><defs><radialGradient id="#ef4444-badge" cx="50%" cy="50%" r="50%"><stop offset="0%" stop-color="#ef4444" /><stop offset="100%" stop-color="#bd1010" /></radialGradient><radialGradient id="#f59e0b-badge" cx="50%" cy="50%" r="50%"><stop offset="0%" stop-color="#f59e0b" /><stop offset="100%" stop-color="#945f06" /></radialGradient><radialGradient id="#3b82f6-badge" cx="50%" cy="50%" r="50%"><stop offset="0%" stop-color="#3b82f6" /><stop offset="100%" stop-color="#094fc2" /></radialGradient></defs><g id="infographic-container"><g transform="translate(204, 0)"><g><foreignObject height="34" width="240" y="0" x="0" overflow="visible"><span style="overflow:visible;color:#262626;font-size:24px;line-height:1.4;width:100%;height:100%;display:flex;flex-wrap:wrap;word-break:break-word;white-space:pre-wrap;text-align:center;justify-content:center;align-content:flex-start;align-items:flex-start" xmlns="http://www.w3.org/1999/xhtml">3 Phát hiện cho CEO</span></foreignObject></g></g><g transform="translate(0, 34)"><g><g><rect x="0" y="0" width="200" height="80" fill="#ef44441a" rx="8" ry="8" /><ellipse x="8" y="8" width="32" height="32" fill="url(##ef4444-badge)" cx="24" cy="24" rx="16" ry="16" /><use style="color:#ffffff" href="#rsc-1143145796" fill="#ffffff" height="24" width="24" y="12" x="12" /><g transform="translate(48, 8)"><g transform="translate(0, 10)"><foreignObject height="20" width="144" y="0" x="0" overflow="visible"><span style="overflow:visible;color:#262626;font-weight:bold;font-size:14px;line-height:1.4;width:100%;height:100%;display:flex;flex-wrap:wrap;word-break:break-word;white-space:pre-wrap;text-align:left;justify-content:flex-start;align-content:center;align-items:center" xmlns="http://www.w3.org/1999/xhtml">AI: Gia vị vs Hạ tầng</span></foreignObject></g></g><g transform="translate(8, 48)"><foreignObject height="27" width="184" y="0" x="0" overflow="visible"><span style="overflow:visible;color:#5a5a5a;font-size:11px;line-height:1.2;width:100%;height:100%;display:flex;flex-wrap:wrap;word-break:break-word;white-space:pre-wrap;text-align:left;justify-content:flex-start;align-content:flex-start;align-items:flex-start" xmlns="http://www.w3.org/1999/xhtml">Big 3 có AI tự hành từ 70M+ hồ sơ. Odoo chỉ có AI cơ bản.</span></foreignObject></g></g><g transform="translate(224, 0)"><rect x="0" y="0" width="200" height="80" fill="#f59e0b1a" rx="8" ry="8" /><ellipse x="8" y="8" width="32" height="32" fill="url(##f59e0b-badge)" cx="24" cy="24" rx="16" ry="16" /><use style="color:#ffffff" href="#rsc-1448739283" fill="#ffffff" height="24" width="24" y="12" x="12" /><g transform="translate(48, 8)"><g transform="translate(0, 10)"><foreignObject height="20" width="144" y="0" x="0" overflow="visible"><span style="overflow:visible;color:#262626;font-weight:bold;font-size:14px;line-height:1.4;width:100%;height:100%;display:flex;flex-wrap:wrap;word-break:break-word;white-space:pre-wrap;text-align:left;justify-content:flex-start;align-content:center;align-items:center" xmlns="http://www.w3.org/1999/xhtml">Chi phí ẩn vượt ngân sách</span></foreignObject></g></g><g transform="translate(8, 48)"><foreignObject height="27" width="184" y="0" x="0" overflow="visible"><span style="overflow:visible;color:#5a5a5a;font-size:11px;line-height:1.2;width:100%;height:100%;display:flex;flex-wrap:wrap;word-break:break-word;white-space:pre-wrap;text-align:left;justify-content:flex-start;align-content:flex-start;align-items:flex-start" xmlns="http://www.w3.org/1999/xhtml">TCO Odoo khi scale 1.000+ NS tiệm cận Oracle/SAP.</span></foreignObject></g></g><g transform="translate(448, 0)"><rect x="0" y="0" width="200" height="80" fill="#3b82f61a" rx="8" ry="8" /><ellipse x="8" y="8" width="32" height="32" fill="url(##3b82f6-badge)" cx="24" cy="24" rx="16" ry="16" /><use style="color:#ffffff" href="#rsc-1777736299" fill="#ffffff" height="24" width="24" y="12" x="12" /><g transform="translate(48, 8)"><g transform="translate(0, 10)"><foreignObject height="20" width="144" y="0" x="0" overflow="visible"><span style="overflow:visible;color:#262626;font-weight:bold;font-size:14px;line-height:1.4;width:100%;height:100%;display:flex;flex-wrap:wrap;word-break:break-word;white-space:pre-wrap;text-align:left;justify-content:flex-start;align-content:center;align-items:center" xmlns="http://www.w3.org/1999/xhtml">Dead Zone 500–2.000</span></foreignObject></g></g><g transform="translate(8, 48)"><foreignObject height="27" width="184" y="0" x="0" overflow="visible"><span style="overflow:visible;color:#5a5a5a;font-size:11px;line-height:1.2;width:100%;height:100%;display:flex;flex-wrap:wrap;word-break:break-word;white-space:pre-wrap;text-align:left;justify-content:flex-start;align-content:flex-start;align-items:flex-start" xmlns="http://www.w3.org/1999/xhtml">Phân khúc mid-market VN chưa ai phục vụ tốt.</span></foreignObject></g></g></g></g></g></svg>