<?xml version="1.0" encoding="UTF-8"?>
<?xml-stylesheet href="https://assets.antv.antgroup.com/AlibabaPuHuiTi-Regular/result.css" type="text/css"?>
<?xml-stylesheet href="https://assets.antv.antgroup.com/AlibabaPuHuiTi-Bold/result.css" type="text/css"?>
<svg height="414" width="380" style="" font-family="Alibaba PuHuiTi" xmlns="http://www.w3.org/2000/svg" viewBox="-20 -20 380 414"><defs /><g id="infographic-container"><g transform="translate(6, 0)"><g><foreignObject height="34" width="328" y="0" x="0" overflow="visible"><span style="overflow:visible;color:#262626;font-size:24px;line-height:1.4;width:100%;height:100%;display:flex;flex-wrap:wrap;word-break:break-word;white-space:pre-wrap;text-align:center;justify-content:center;align-content:flex-start;align-items:flex-start" xmlns="http://www.w3.org/1999/xhtml">Định vị thị trường HCM</span></foreignObject></g></g><g transform="translate(0, 34)"><path d="M 0 170 L 340 170" stroke="#D9D9D9" stroke-width="1" stroke-dasharray="4,2" fill="none" /><g transform="translate(340, 170)"><path d="M 0 0 L -5 -2.5" stroke="#D9D9D9" stroke-width="1" fill="none" /><path d="M 0 0 L -5 2.5" stroke="#D9D9D9" stroke-width="1" fill="none" /></g><g transform="translate(0, 170)"><path d="M 0 0 L 5 -2.5" stroke="#D9D9D9" stroke-width="1" fill="none" /><path d="M 0 0 L 5 2.5" stroke="#D9D9D9" stroke-width="1" fill="none" /></g><path d="M 170 0 L 170 340" stroke="#D9D9D9" stroke-width="1" stroke-dasharray="4,2" fill="none" /><g transform="translate(170, 0)"><path d="M 0 0 L -2.5 5" stroke="#D9D9D9" stroke-width="1" fill="none" /><path d="M 0 0 L 2.5 5" stroke="#D9D9D9" stroke-width="1" fill="none" /></g><g transform="translate(170, 340)"><path d="M 0 0 L -2.5 -5" stroke="#D9D9D9" stroke-width="1" fill="none" /><path d="M 0 0 L 2.5 -5" stroke="#D9D9D9" stroke-width="1" fill="none" /></g><g><g transform="translate(10, 10)"><path d="
  M 16 0
  L 134 0
  Q 150 0 150 16
  L 150 150
  L 16 150
  Q 0 150 0 134
  L 0 16
  Q 0 0 16 0
  Z
" x="0" y="0" width="150" height="150" fill="#3b82f6" transform="translate(0, 0)" /><g transform="translate(20, 58)"><foreignObject height="20" width="110" y="0" x="0" overflow="visible"><span style="overflow:visible;color:#ffffff;font-weight:bold;font-size:14px;line-height:1.4;width:100%;height:100%;display:flex;flex-wrap:wrap;word-break:break-word;white-space:pre-wrap;text-align:left;justify-content:flex-start;align-content:flex-start;align-items:flex-start" xmlns="http://www.w3.org/1999/xhtml">Sâu + Đắt</span></foreignObject></g><g transform="translate(20, 88)"><foreignObject height="31" width="110" y="0" x="0" overflow="visible"><span style="overflow:visible;color:#ffffff;font-size:11px;line-height:1.4;width:100%;height:100%;display:flex;flex-wrap:wrap;word-break:break-word;white-space:pre-wrap;text-align:left;justify-content:flex-start;align-content:flex-start;align-items:flex-start" xmlns="http://www.w3.org/1999/xhtml">Workday, SAP SF. Cho DN 2.000+ NS.</span></foreignObject></g></g><g transform="translate(180, 10)"><path d="
  M 16 0
  L 134 0
  Q 150 0 150 16
  L 150 134
  Q 150 150 134 150
  L 0 150
  L 0 16
  Q 0 0 16 0
  Z
" x="0" y="0" width="150" height="150" fill="#ef4444" transform="translate(0, 0)" /><g transform="translate(20, 58)"><foreignObject height="20" width="110" y="0" x="0" overflow="visible"><span style="overflow:visible;color:#ffffff;font-weight:bold;font-size:14px;line-height:1.4;width:100%;height:100%;display:flex;flex-wrap:wrap;word-break:break-word;white-space:pre-wrap;text-align:right;justify-content:flex-end;align-content:flex-start;align-items:flex-start" xmlns="http://www.w3.org/1999/xhtml">Sâu + Hợp lý</span></foreignObject></g><g transform="translate(20, 88)"><foreignObject height="31" width="110" y="0" x="0" overflow="visible"><span style="overflow:visible;color:#ffffff;font-size:11px;line-height:1.4;width:100%;height:100%;display:flex;flex-wrap:wrap;word-break:break-word;white-space:pre-wrap;text-align:right;justify-content:flex-end;align-content:flex-start;align-items:flex-start" xmlns="http://www.w3.org/1999/xhtml">DEAD ZONE — Chưa ai phục vụ tốt.</span></foreignObject></g></g><g transform="translate(10, 180)"><path d="
  M 0 0
  L 150 0
  L 150 134
  Q 150 150 134 150
  L 16 150
  Q 0 150 0 134
  L 0 16
  Q 0 0 16 0
  Z
" x="0" y="0" width="150" height="150" fill="#10b981" transform="translate(0, 0)" /><g transform="translate(20, 58)"><foreignObject height="20" width="110" y="0" x="0" overflow="visible"><span style="overflow:visible;color:#ffffff;font-weight:bold;font-size:14px;line-height:1.4;width:100%;height:100%;display:flex;flex-wrap:wrap;word-break:break-word;white-space:pre-wrap;text-align:left;justify-content:flex-start;align-content:flex-start;align-items:flex-start" xmlns="http://www.w3.org/1999/xhtml">Cạn + Rẻ</span></foreignObject></g><g transform="translate(20, 88)"><foreignObject height="31" width="110" y="0" x="0" overflow="visible"><span style="overflow:visible;color:#ffffff;font-size:11px;line-height:1.4;width:100%;height:100%;display:flex;flex-wrap:wrap;word-break:break-word;white-space:pre-wrap;text-align:left;justify-content:flex-start;align-content:flex-start;align-items:flex-start" xmlns="http://www.w3.org/1999/xhtml">Base.vn, 1Office. Cho SME &lt;200 NS.</span></foreignObject></g></g><g transform="translate(180, 180)"><path d="
  M 16 0
  L 134 0
  Q 150 0 150 16
  L 150 134
  Q 150 150 134 150
  L 16 150
  Q 0 150 0 134
  L 0 0
  L 16 0
  Z
" x="0" y="0" width="150" height="150" fill="#f59e0b" transform="translate(0, 0)" /><g transform="translate(20, 58)"><foreignObject height="20" width="110" y="0" x="0" overflow="visible"><span style="overflow:visible;color:#ffffff;font-weight:bold;font-size:14px;line-height:1.4;width:100%;height:100%;display:flex;flex-wrap:wrap;word-break:break-word;white-space:pre-wrap;text-align:right;justify-content:flex-end;align-content:flex-start;align-items:flex-start" xmlns="http://www.w3.org/1999/xhtml">Cạn + Trung bình</span></foreignObject></g><g transform="translate(20, 88)"><foreignObject height="31" width="110" y="0" x="0" overflow="visible"><span style="overflow:visible;color:#ffffff;font-size:11px;line-height:1.4;width:100%;height:100%;display:flex;flex-wrap:wrap;word-break:break-word;white-space:pre-wrap;text-align:right;justify-content:flex-end;align-content:flex-start;align-items:flex-start" xmlns="http://www.w3.org/1999/xhtml">Odoo 18. Thiếu depth khi scale.</span></foreignObject></g></g></g></g></g></svg>