<?xml version="1.0" encoding="UTF-8"?>
<?xml-stylesheet href="https://assets.antv.antgroup.com/AlibabaPuHuiTi-Regular/result.css" type="text/css"?>
<?xml-stylesheet href="https://assets.antv.antgroup.com/AlibabaPuHuiTi-Bold/result.css" type="text/css"?>
<svg height="394" width="784" style="" font-family="Alibaba PuHuiTi" xmlns="http://www.w3.org/2000/svg" viewBox="-20 -20 784 394"><defs /><g id="infographic-container"><g transform="translate(97.5, 0)"><g transform="translate(102.5, 0)"><foreignObject height="34" width="344" y="0" x="0" overflow="visible"><span style="overflow:visible;color:#262626;font-size:24px;line-height:1.4;width:100%;height:100%;display:flex;flex-wrap:wrap;word-break:break-word;white-space:pre-wrap;text-align:center;justify-content:center;align-content:flex-start;align-items:flex-start" xmlns="http://www.w3.org/1999/xhtml">Giá License (USD/user/tháng)</span></foreignObject></g><g transform="translate(0, 42)"><foreignObject height="48" width="549" y="0" x="0" overflow="visible"><span style="overflow:visible;color:#5a5a5a;font-size:16px;line-height:1.4;width:100%;height:100%;display:flex;flex-wrap:wrap;word-break:break-word;white-space:pre-wrap;text-align:center;justify-content:center;align-content:flex-start;align-items:flex-start" xmlns="http://www.w3.org/1999/xhtml">List price trung bình — chưa bao gồm implementation &amp; customization</span></foreignObject></g></g><g transform="translate(0, 90)"><g><path d="M160 24 L160 212" stroke="#262626" stroke-opacity="0.08" /><path d="M218.1818181818182 24 L218.1818181818182 212" stroke="#262626" stroke-opacity="0.08" /><path d="M276.3636363636364 24 L276.3636363636364 212" stroke="#262626" stroke-opacity="0.08" /><path d="M334.54545454545456 24 L334.54545454545456 212" stroke="#262626" stroke-opacity="0.08" /><path d="M392.72727272727275 24 L392.72727272727275 212" stroke="#262626" stroke-opacity="0.08" /><path d="M450.90909090909093 24 L450.90909090909093 212" stroke="#262626" stroke-opacity="0.08" /><path d="M509.0909090909091 24 L509.0909090909091 212" stroke="#262626" stroke-opacity="0.08" /><path d="M567.2727272727273 24 L567.2727272727273 212" stroke="#262626" stroke-opacity="0.08" /><path d="M625.4545454545455 24 L625.4545454545455 212" stroke="#262626" stroke-opacity="0.08" /></g><g><rect x="160" y="24" width="23.272727272727273" height="28" fill="#3b82f6" rx="6" ry="6" /><rect x="160" y="64" width="43.63636363636364" height="28" fill="#f59e0b" rx="6" ry="6" /><rect x="160" y="104" width="87.27272727272728" height="28" fill="#10b981" rx="6" ry="6" /><rect x="160" y="144" width="122.18181818181817" height="28" fill="#8b5cf6" rx="6" ry="6" /><rect x="160" y="184" width="436.3636363636364" height="28" fill="#ef4444" rx="6" ry="6" /></g><g><g transform="translate(191.27272727272728, 38)"><text width="9" height="20" x="0" y="0" fill="#3b82f6" font-size="14" text-anchor="start" dominant-baseline="central" font-weight="bold">8</text></g><g transform="translate(211.63636363636363, 78)"><text width="17" height="20" x="0" y="0" fill="#f59e0b" font-size="14" text-anchor="start" dominant-baseline="central" font-weight="bold">15</text></g><g transform="translate(255.27272727272728, 118)"><text width="17" height="20" x="0" y="0" fill="#10b981" font-size="14" text-anchor="start" dominant-baseline="central" font-weight="bold">30</text></g><g transform="translate(290.1818181818182, 158)"><text width="17" height="20" x="0" y="0" fill="#8b5cf6" font-size="14" text-anchor="start" dominant-baseline="central" font-weight="bold">42</text></g><g transform="translate(604.3636363636364, 198)"><text width="25" height="20" x="0" y="0" fill="#ef4444" font-size="14" text-anchor="start" dominant-baseline="central" font-weight="bold">150</text></g></g><g /><g><path d="M160 220 L640 220" stroke="#262626" /><path d="M159.5 220 L159.5 226" stroke="#262626" /><g transform="translate(160, 234)"><text width="7" height="17" x="0" y="0" fill="#262626" font-size="12" text-anchor="middle" dominant-baseline="central">0</text></g><path d="M217.6818181818182 220 L217.6818181818182 226" stroke="#262626" /><g transform="translate(218.1818181818182, 234)"><text width="14" height="17" x="0" y="0" fill="#262626" font-size="12" text-anchor="middle" dominant-baseline="central">20</text></g><path d="M275.8636363636364 220 L275.8636363636364 226" stroke="#262626" /><g transform="translate(276.3636363636364, 234)"><text width="14" height="17" x="0" y="0" fill="#262626" font-size="12" text-anchor="middle" dominant-baseline="central">40</text></g><path d="M334.04545454545456 220 L334.04545454545456 226" stroke="#262626" /><g transform="translate(334.54545454545456, 234)"><text width="14" height="17" x="0" y="0" fill="#262626" font-size="12" text-anchor="middle" dominant-baseline="central">60</text></g><path d="M392.22727272727275 220 L392.22727272727275 226" stroke="#262626" /><g transform="translate(392.72727272727275, 234)"><text width="14" height="17" x="0" y="0" fill="#262626" font-size="12" text-anchor="middle" dominant-baseline="central">80</text></g><path d="M450.40909090909093 220 L450.40909090909093 226" stroke="#262626" /><g transform="translate(450.90909090909093, 234)"><text width="21" height="17" x="0" y="0" fill="#262626" font-size="12" text-anchor="middle" dominant-baseline="central">100</text></g><path d="M508.5909090909091 220 L508.5909090909091 226" stroke="#262626" /><g transform="translate(509.0909090909091, 234)"><text width="21" height="17" x="0" y="0" fill="#262626" font-size="12" text-anchor="middle" dominant-baseline="central">120</text></g><path d="M566.7727272727273 220 L566.7727272727273 226" stroke="#262626" /><g transform="translate(567.2727272727273, 234)"><text width="21" height="17" x="0" y="0" fill="#262626" font-size="12" text-anchor="middle" dominant-baseline="central">140</text></g><path d="M624.9545454545455 220 L624.9545454545455 226" stroke="#262626" /><g transform="translate(625.4545454545455, 234)"><text width="21" height="17" x="0" y="0" fill="#262626" font-size="12" text-anchor="middle" dominant-baseline="central">160</text></g></g><g><g transform="translate(24, 28)"><foreignObject height="20" width="120" y="0" x="0" overflow="visible"><span style="overflow:visible;color:#262626;font-weight:regular;font-size:14px;line-height:1.4;width:100%;height:100%;display:flex;flex-wrap:wrap;word-break:break-word;white-space:pre-wrap;text-align:right;justify-content:flex-end;align-content:flex-start;align-items:flex-start" xmlns="http://www.w3.org/1999/xhtml">SAP SF (cơ bản)</span></foreignObject></g><g transform="translate(24, 68)"><foreignObject height="20" width="120" y="0" x="0" overflow="visible"><span style="overflow:visible;color:#262626;font-weight:regular;font-size:14px;line-height:1.4;width:100%;height:100%;display:flex;flex-wrap:wrap;word-break:break-word;white-space:pre-wrap;text-align:right;justify-content:flex-end;align-content:flex-start;align-items:flex-start" xmlns="http://www.w3.org/1999/xhtml">Oracle HCM</span></foreignObject></g><g transform="translate(24, 108)"><foreignObject height="20" width="120" y="0" x="0" overflow="visible"><span style="overflow:visible;color:#262626;font-weight:regular;font-size:14px;line-height:1.4;width:100%;height:100%;display:flex;flex-wrap:wrap;word-break:break-word;white-space:pre-wrap;text-align:right;justify-content:flex-end;align-content:flex-start;align-items:flex-start" xmlns="http://www.w3.org/1999/xhtml">Odoo 18</span></foreignObject></g><g transform="translate(24, 148)"><foreignObject height="20" width="120" y="0" x="0" overflow="visible"><span style="overflow:visible;color:#262626;font-weight:regular;font-size:14px;line-height:1.4;width:100%;height:100%;display:flex;flex-wrap:wrap;word-break:break-word;white-space:pre-wrap;text-align:right;justify-content:flex-end;align-content:flex-start;align-items:flex-start" xmlns="http://www.w3.org/1999/xhtml">Workday (mid)</span></foreignObject></g><g transform="translate(24, 188)"><foreignObject height="20" width="120" y="0" x="0" overflow="visible"><span style="overflow:visible;color:#262626;font-weight:regular;font-size:14px;line-height:1.4;width:100%;height:100%;display:flex;flex-wrap:wrap;word-break:break-word;white-space:pre-wrap;text-align:right;justify-content:flex-end;align-content:flex-start;align-items:flex-start" xmlns="http://www.w3.org/1999/xhtml">Workday (enterprise)</span></foreignObject></g></g></g></g></svg>