<?xml version="1.0" encoding="UTF-8"?>
<?xml-stylesheet href="https://assets.antv.antgroup.com/AlibabaPuHuiTi-Regular/result.css" type="text/css"?>
<?xml-stylesheet href="https://assets.antv.antgroup.com/AlibabaPuHuiTi-Bold/result.css" type="text/css"?>
<svg height="314" width="688" style="" font-family="Alibaba PuHuiTi" xmlns="http://www.w3.org/2000/svg" viewBox="-20 -20 688 314"><defs /><defs id="infographic-defs"><symbol id="rsc-291879702" xmlns="http://www.w3.org/2000/svg" viewBox="0 0 512 512">
  <path d="M0 256c0 41.36 33.65 75 75 75s75-33.65 75-75-33.65-75-75-75-75 33.65-75 75zm120 0c0 24.81-20.19 45-45 45s-45-20.19-45-45 20.19-45 45-45 45 20.19 45 45z" />
  <path d="M437 331c41.36 0 75-33.65 75-75s-33.65-75-75-75-75 33.65-75 75 33.65 75 75 75zm0-120c24.81 0 45 20.19 45 45s-20.19 45-45 45-45-20.19-45-45 20.19-45 45-45z" />
  <path d="M181 256c0 41.36 33.65 75 75 75s75-33.65 75-75-33.65-75-75-75-75 33.65-75 75zm120 0c0 24.81-20.19 45-45 45s-45-20.19-45-45 20.19-45 45-45 45 20.19 45 45z" />
</symbol><symbol id="rsc-353573289" xmlns="http://www.w3.org/2000/svg" viewBox="0 0 24 24"><path d="m13 7.101.01.001a5 5 0 0 1 2.526 1.362 5 5 0 0 1 1.363 2.528 5.1 5.1 0 0 1-.001 2.016 4.98 4.98 0 0 1-1.363 2.527l1.414 1.414a7 7 0 0 0 1.908-3.54 7 7 0 0 0 0-2.819 6.96 6.96 0 0 0-1.907-3.539 7 7 0 0 0-2.223-1.5 7 7 0 0 0-1.315-.408c-.137-.028-.275-.043-.412-.063V2L9 6l4 4zm-7.45 7.623c.174.412.392.812.646 1.19.249.37.537.718.854 1.034a7 7 0 0 0 2.224 1.501c.425.18.868.317 1.315.408.167.034.338.056.508.078v2.944l4-4-4-4v3.03c-.035-.006-.072-.003-.107-.011a5 5 0 0 1-2.526-1.362 4.994 4.994 0 0 1 .001-7.071L7.051 7.05a7 7 0 0 0-1.5 2.224A7 7 0 0 0 5 12a7 7 0 0 0 .55 2.724" /></symbol><symbol id="rsc-490691504" xmlns="http://www.w3.org/2000/svg" xmlns:xlink="http://www.w3.org/1999/xlink" xml:space="preserve" viewBox="0 0 512 512">
  <path d="M437.02 74.98c-48.35-48.35-112.64-74.98-181.02-74.98-68.38 0-132.67 26.63-181.02 74.98-48.35 48.35-74.98 112.64-74.98 181.02s26.63 132.67 74.98 181.02 112.64 74.98 181.02 74.98h100.42c52.56 0 95.33-42.77 95.33-95.33v-74.87h45.25a15 15 0 0 0 15-15v-70.8c0-68.38-26.63-132.67-74.98-181.02zm-.27 236.82a15 15 0 0 0-15 15v89.87a65.4 65.4 0 0 1-65.33 65.33h-100.42c-124.61 0-226-101.38-226-226s101.39-226 226-226c124.62 0 226 101.38 226 226v55.8h-45.25z" />
  <path d="M256 96.4c-88 0-159.6 71.6-159.6 159.6a15 15 0 0 0 15 15h289.2a15 15 0 0 0 15-15c0-88-71.6-159.6-159.6-159.6zm-128.74 144.6c7.46-64.42 62.35-114.6 128.74-114.6s121.28 50.18 128.74 114.6h-257.48z" />
</symbol><symbol id="rsc-2105003191" xmlns="http://www.w3.org/2000/svg" viewBox="0 0 512 512">
  <path d="M511.91 135a15 15 0 0 0-15-15h-150.89a49.13 49.13 0 0 0 3.98-19.41v-51.18a49.47 49.47 0 0 0-49.41-49.41h-251.18a49.47 49.47 0 0 0-49.41 49.41v51.18c0 13.37 5.35 25.5 14 34.41a49.23 49.23 0 0 0-14 34.41v51.18c0 13.37 5.35 25.5 14 34.41a49.23 49.23 0 0 0-14 34.4v51.2a49.47 49.47 0 0 0 49.4 49.4h140.6v77c0 24.81 20.19 45 45 45h261.91.09a15 15 0 0 0 15-15zm-30 287h-201v-272h201zm-451.91-201.4v-51.2c0-10.7 8.7-19.4 19.4-19.4h.01 143.17a44.79 44.79 0 0 0-2.58 15v75h-140.6a19.43 19.43 0 0 1-19.4-19.4zm190-55.6c0-8.27 6.73-15 15-15h15.9v272h-15.9c-5.26 0-10.3.92-15 2.58zm-190-115.59a19.43 19.43 0 0 1 19.41-19.41h251.18c10.7 0 19.41 8.7 19.41 19.41v51.18c0 10.7-8.7 19.41-19.41 19.41h-251.18a19.43 19.43 0 0 1-19.41-19.41zm19.4 310.59a19.43 19.43 0 0 1-19.4-19.4v-51.2c0-10.7 8.7-19.4 19.4-19.4h140.6v90zm185.6 122c-8.27 0-15-6.73-15-15s6.73-15 15-15h246.91v30z" />
  <path d="M381.5 372.5a15 15 0 0 0 15-15v-83a15 15 0 0 0-30 0v83a15 15 0 0 0 15 15z" />
  <path d="M216 90h59a15 15 0 0 0 0-30h-59a15 15 0 0 0 0 30z" />
  <circle cx="75" cy="75" r="15" />
  <circle cx="75" cy="195" r="15" />
  <circle cx="75" cy="315" r="15" />
  <circle cx="381.5" cy="214.5" r="15" />
</symbol></defs><defs><radialGradient id="#6366f1-badge" cx="50%" cy="50%" r="50%"><stop offset="0%" stop-color="#6366f1" /><stop offset="100%" stop-color="#1418da" /></radialGradient><radialGradient id="#06b6d4-badge" cx="50%" cy="50%" r="50%"><stop offset="0%" stop-color="#06b6d4" /><stop offset="100%" stop-color="#036171" /></radialGradient><radialGradient id="#f59e0b-badge" cx="50%" cy="50%" r="50%"><stop offset="0%" stop-color="#f59e0b" /><stop offset="100%" stop-color="#945f06" /></radialGradient><radialGradient id="#10b981-badge" cx="50%" cy="50%" r="50%"><stop offset="0%" stop-color="#10b981" /><stop offset="100%" stop-color="#085b40" /></radialGradient></defs><g id="infographic-container"><g transform="translate(143, 0)"><g transform="translate(49, 0)"><foreignObject height="34" width="264" y="0" x="0" overflow="visible"><span style="overflow:visible;color:#262626;font-size:24px;line-height:1.4;width:100%;height:100%;display:flex;flex-wrap:wrap;word-break:break-word;white-space:pre-wrap;text-align:center;justify-content:center;align-content:flex-start;align-items:flex-start" xmlns="http://www.w3.org/1999/xhtml">Four Self-* Capabilities</span></foreignObject></g><g transform="translate(0, 42)"><foreignObject height="48" width="362" y="0" x="0" overflow="visible"><span style="overflow:visible;color:#5a5a5a;font-size:16px;line-height:1.4;width:100%;height:100%;display:flex;flex-wrap:wrap;word-break:break-word;white-space:pre-wrap;text-align:center;justify-content:center;align-content:flex-start;align-items:flex-start" xmlns="http://www.w3.org/1999/xhtml">Software that understands, learns, and evolves</span></foreignObject></g></g><g transform="translate(0, 90)"><g><g><rect x="0" y="0" width="200" height="80" fill="#6366f11a" rx="8" ry="8" /><ellipse x="8" y="8" width="32" height="32" fill="url(##6366f1-badge)" cx="24" cy="24" rx="16" ry="16" /><use style="color:#ffffff" href="#rsc-490691504" fill="#ffffff" height="24" width="24" y="12" x="12" /><g transform="translate(48, 8)"><g transform="translate(0, 10)"><foreignObject height="20" width="144" y="0" x="0" overflow="visible"><span style="overflow:visible;color:#262626;font-weight:bold;font-size:14px;line-height:1.4;width:100%;height:100%;display:flex;flex-wrap:wrap;word-break:break-word;white-space:pre-wrap;text-align:left;justify-content:flex-start;align-content:center;align-items:center" xmlns="http://www.w3.org/1999/xhtml">Self-Understanding</span></foreignObject></g></g><g transform="translate(8, 48)"><foreignObject height="27" width="184" y="0" x="0" overflow="visible"><span style="overflow:visible;color:#5a5a5a;font-size:11px;line-height:1.2;width:100%;height:100%;display:flex;flex-wrap:wrap;word-break:break-word;white-space:pre-wrap;text-align:left;justify-content:flex-start;align-content:flex-start;align-items:flex-start" xmlns="http://www.w3.org/1999/xhtml">AI comprehends business domain like an expert through Ontology-Driven Knowledge Layer</span></foreignObject></g></g><g transform="translate(224, 0)"><rect x="0" y="0" width="200" height="80" fill="#06b6d41a" rx="8" ry="8" /><ellipse x="8" y="8" width="32" height="32" fill="url(##06b6d4-badge)" cx="24" cy="24" rx="16" ry="16" /><use style="color:#ffffff" href="#rsc-291879702" fill="#ffffff" height="24" width="24" y="12" x="12" /><g transform="translate(48, 8)"><g transform="translate(0, 10)"><foreignObject height="20" width="144" y="0" x="0" overflow="visible"><span style="overflow:visible;color:#262626;font-weight:bold;font-size:14px;line-height:1.4;width:100%;height:100%;display:flex;flex-wrap:wrap;word-break:break-word;white-space:pre-wrap;text-align:left;justify-content:flex-start;align-content:center;align-items:center" xmlns="http://www.w3.org/1999/xhtml">Self-Adapting UI</span></foreignObject></g></g><g transform="translate(8, 48)"><foreignObject height="27" width="184" y="0" x="0" overflow="visible"><span style="overflow:visible;color:#5a5a5a;font-size:11px;line-height:1.2;width:100%;height:100%;display:flex;flex-wrap:wrap;word-break:break-word;white-space:pre-wrap;text-align:left;justify-content:flex-start;align-content:flex-start;align-items:flex-start" xmlns="http://www.w3.org/1999/xhtml">AI generates personalized interfaces per user via A2UI — every user gets a tailored experience</span></foreignObject></g></g><g transform="translate(448, 0)"><rect x="0" y="0" width="200" height="80" fill="#f59e0b1a" rx="8" ry="8" /><ellipse x="8" y="8" width="32" height="32" fill="url(##f59e0b-badge)" cx="24" cy="24" rx="16" ry="16" /><use style="color:#ffffff" href="#rsc-353573289" fill="#ffffff" height="24" width="24" y="12" x="12" /><g transform="translate(48, 8)"><g transform="translate(0, 10)"><foreignObject height="20" width="144" y="0" x="0" overflow="visible"><span style="overflow:visible;color:#262626;font-weight:bold;font-size:14px;line-height:1.4;width:100%;height:100%;display:flex;flex-wrap:wrap;word-break:break-word;white-space:pre-wrap;text-align:left;justify-content:flex-start;align-content:center;align-items:center" xmlns="http://www.w3.org/1999/xhtml">Self-Orchestrating</span></foreignObject></g></g><g transform="translate(8, 48)"><foreignObject height="27" width="184" y="0" x="0" overflow="visible"><span style="overflow:visible;color:#5a5a5a;font-size:11px;line-height:1.2;width:100%;height:100%;display:flex;flex-wrap:wrap;word-break:break-word;white-space:pre-wrap;text-align:left;justify-content:flex-start;align-content:flex-start;align-items:flex-start" xmlns="http://www.w3.org/1999/xhtml">Multi-agent workflows coordinate across functions automatically without human reprogramming</span></foreignObject></g></g><g transform="translate(0, 104)"><rect x="0" y="0" width="200" height="80" fill="#10b9811a" rx="8" ry="8" /><ellipse x="8" y="8" width="32" height="32" fill="url(##10b981-badge)" cx="24" cy="24" rx="16" ry="16" /><use style="color:#ffffff" href="#rsc-2105003191" fill="#ffffff" height="24" width="24" y="12" x="12" /><g transform="translate(48, 8)"><g transform="translate(0, 10)"><foreignObject height="20" width="144" y="0" x="0" overflow="visible"><span style="overflow:visible;color:#262626;font-weight:bold;font-size:14px;line-height:1.4;width:100%;height:100%;display:flex;flex-wrap:wrap;word-break:break-word;white-space:pre-wrap;text-align:left;justify-content:flex-start;align-content:center;align-items:center" xmlns="http://www.w3.org/1999/xhtml">Self-Managing Data</span></foreignObject></g></g><g transform="translate(8, 48)"><foreignObject height="27" width="184" y="0" x="0" overflow="visible"><span style="overflow:visible;color:#5a5a5a;font-size:11px;line-height:1.2;width:100%;height:100%;display:flex;flex-wrap:wrap;word-break:break-word;white-space:pre-wrap;text-align:left;justify-content:flex-start;align-content:flex-start;align-items:flex-start" xmlns="http://www.w3.org/1999/xhtml">Multi-modal data architecture grows organically — right storage for every data type</span></foreignObject></g></g></g></g></g></svg>