<?xml version="1.0" encoding="UTF-8"?>
<?xml-stylesheet href="https://assets.antv.antgroup.com/AlibabaPuHuiTi-Regular/result.css" type="text/css"?>
<?xml-stylesheet href="https://assets.antv.antgroup.com/AlibabaPuHuiTi-Bold/result.css" type="text/css"?>
<svg height="398" width="640" style="" font-family="Alibaba PuHuiTi" xmlns="http://www.w3.org/2000/svg" viewBox="-60 -20 640 398"><defs /><defs><filter id="sequence-zigzag-pucks-3d-shadow-filter" x="-50%" y="-50%" width="200%" height="200%" filterUnits="userSpaceOnUse" color-interpolation-filters="sRGB"><feOffset dx="-7" dy="7" in="SourceAlpha" result="offset" /><feGaussianBlur stdDeviation="7.5" in="offset" result="blurred" /><feColorMatrix in="blurred" type="matrix" values="0 0 0 0 0 
              0 0 0 0 0 
              0 0 0 0 0 
              0 0 0 0.3 0" result="shadow" /><feBlend mode="normal" in="SourceGraphic" in2="shadow" /></filter><linearGradient id="puck-gradient-middle-0" x1="115" y1="55.9991" x2="15.0002" y2="55.9991" gradientUnits="userSpaceOnUse"><stop offset="0" stop-color="#6366f1" /><stop offset="1" stop-color="#6366f1" stop-opacity="0.6" /></linearGradient><linearGradient id="puck-gradient-bottom-0" x1="115" y1="72.1803" x2="15.0002" y2="72.1803" gradientUnits="userSpaceOnUse"><stop offset="0" stop-color="#F4F4FB" /><stop offset="1" stop-color="#8E8C90" /></linearGradient><linearGradient id="puck-gradient-middle-1" x1="115" y1="55.9991" x2="15.0002" y2="55.9991" gradientUnits="userSpaceOnUse"><stop offset="0" stop-color="#06b6d4" /><stop offset="1" stop-color="#06b6d4" stop-opacity="0.6" /></linearGradient><linearGradient id="puck-gradient-bottom-1" x1="115" y1="72.1803" x2="15.0002" y2="72.1803" gradientUnits="userSpaceOnUse"><stop offset="0" stop-color="#F4F4FB" /><stop offset="1" stop-color="#8E8C90" /></linearGradient><linearGradient id="puck-gradient-middle-2" x1="115" y1="55.9991" x2="15.0002" y2="55.9991" gradientUnits="userSpaceOnUse"><stop offset="0" stop-color="#10b981" /><stop offset="1" stop-color="#10b981" stop-opacity="0.6" /></linearGradient><linearGradient id="puck-gradient-bottom-2" x1="115" y1="72.1803" x2="15.0002" y2="72.1803" gradientUnits="userSpaceOnUse"><stop offset="0" stop-color="#F4F4FB" /><stop offset="1" stop-color="#8E8C90" /></linearGradient></defs><g id="infographic-container" transform="translate(-40, 0)"><g transform="translate(137.5, 30)"><g transform="translate(5.5, 0)"><foreignObject height="34" width="314" y="0" x="0" overflow="visible"><span style="overflow:visible;color:#262626;font-size:24px;line-height:1.4;width:100%;height:100%;display:flex;flex-wrap:wrap;word-break:break-word;white-space:pre-wrap;text-align:center;justify-content:center;align-content:flex-start;align-items:flex-start" xmlns="http://www.w3.org/1999/xhtml">xTalent Evolution Roadmap</span></foreignObject></g><g transform="translate(0, 42)"><foreignObject height="48" width="325" y="0" x="0" overflow="visible"><span style="overflow:visible;color:#5a5a5a;font-size:16px;line-height:1.4;width:100%;height:100%;display:flex;flex-wrap:wrap;word-break:break-word;white-space:pre-wrap;text-align:center;justify-content:center;align-content:flex-start;align-items:flex-start" xmlns="http://www.w3.org/1999/xhtml">Three Phases to the Self-Evolving Platform</span></foreignObject></g></g><g transform="translate(40, 150)"><g><g id="puck-0" filter="url(#sequence-zigzag-pucks-3d-shadow-filter)"><g><path d="M4.49144e-05 34.4898C4.49144e-05 37.8786 0.848973 41.152 2.43571 44.2444C4.23516 47.7642 6.98514 51.0472 10.517 54.0009C21.331 63.047 39.4615 68.9814 59.9991 68.9814C80.5385 68.9814 98.6672 63.047 109.483 54.0009C113.013 51.0472 115.765 47.7642 117.564 44.2444C119.149 41.152 120 37.8786 120 34.4898C120 15.4407 93.1364 0 59.9991 0C26.8635 0 4.49144e-05 15.4407 4.49144e-05 34.4898Z" fill="#6366f1" /><path d="M4.49145e-05 34.4898V53.9991C4.49145e-05 57.3879 0.848973 60.6613 2.43571 63.7556C9.75425 78.0545 32.7562 88.4907 59.999 88.4907C87.2438 88.4907 110.246 78.0545 117.564 63.7556C119.149 60.6613 120 57.3879 120 53.9991V34.4898C120 37.8786 119.149 41.152 117.564 44.2444C115.765 47.7642 113.013 51.0472 109.483 54.0009C98.6672 63.047 80.5385 68.9814 59.999 68.9814C39.4615 68.9814 21.3309 63.047 10.5169 54.0009C6.98509 51.0472 4.23516 47.7642 2.43567 44.2444C0.848928 41.152 4.49145e-05 37.8786 4.49145e-05 34.4898Z" fill="url(#puck-gradient-middle-0)" /><path d="M0 53.9991V73.5102C0 92.5593 26.8634 108 59.999 108C93.1363 108 120 92.5593 120 73.5102V53.9991C120 57.3879 119.149 60.6613 117.564 63.7556C110.246 78.0545 87.2438 88.4907 59.999 88.4907C32.7562 88.4907 9.75425 78.0545 2.43571 63.7556C0.848973 60.6613 0 57.3879 0 53.9991Z" fill="url(#puck-gradient-bottom-0)" /><rect fill="transparent" y="108" width="120" height="20" /></g><text x="65" y="40" width="50" height="50" font-size="40" font-weight="bold" fill="#FFFFFF" text-anchor="middle" dominant-baseline="middle" transform="rotate(-15 65 40) scale(1, 0.8)">1</text></g><g id="puck-1" filter="url(#sequence-zigzag-pucks-3d-shadow-filter)" transform="translate(200, 100)"><g><path d="M4.49144e-05 34.4898C4.49144e-05 37.8786 0.848973 41.152 2.43571 44.2444C4.23516 47.7642 6.98514 51.0472 10.517 54.0009C21.331 63.047 39.4615 68.9814 59.9991 68.9814C80.5385 68.9814 98.6672 63.047 109.483 54.0009C113.013 51.0472 115.765 47.7642 117.564 44.2444C119.149 41.152 120 37.8786 120 34.4898C120 15.4407 93.1364 0 59.9991 0C26.8635 0 4.49144e-05 15.4407 4.49144e-05 34.4898Z" fill="#06b6d4" /><path d="M4.49145e-05 34.4898V53.9991C4.49145e-05 57.3879 0.848973 60.6613 2.43571 63.7556C9.75425 78.0545 32.7562 88.4907 59.999 88.4907C87.2438 88.4907 110.246 78.0545 117.564 63.7556C119.149 60.6613 120 57.3879 120 53.9991V34.4898C120 37.8786 119.149 41.152 117.564 44.2444C115.765 47.7642 113.013 51.0472 109.483 54.0009C98.6672 63.047 80.5385 68.9814 59.999 68.9814C39.4615 68.9814 21.3309 63.047 10.5169 54.0009C6.98509 51.0472 4.23516 47.7642 2.43567 44.2444C0.848928 41.152 4.49145e-05 37.8786 4.49145e-05 34.4898Z" fill="url(#puck-gradient-middle-1)" /><path d="M0 53.9991V73.5102C0 92.5593 26.8634 108 59.999 108C93.1363 108 120 92.5593 120 73.5102V53.9991C120 57.3879 119.149 60.6613 117.564 63.7556C110.246 78.0545 87.2438 88.4907 59.999 88.4907C32.7562 88.4907 9.75425 78.0545 2.43571 63.7556C0.848973 60.6613 0 57.3879 0 53.9991Z" fill="url(#puck-gradient-bottom-1)" /><rect fill="transparent" y="108" width="120" height="20" /></g><text x="65" y="40" width="50" height="50" font-size="40" font-weight="bold" fill="#FFFFFF" text-anchor="middle" dominant-baseline="middle" transform="rotate(-15 65 40) scale(1, 0.8)">2</text></g><g id="puck-2" filter="url(#sequence-zigzag-pucks-3d-shadow-filter)" transform="translate(400, 0)"><g><path d="M4.49144e-05 34.4898C4.49144e-05 37.8786 0.848973 41.152 2.43571 44.2444C4.23516 47.7642 6.98514 51.0472 10.517 54.0009C21.331 63.047 39.4615 68.9814 59.9991 68.9814C80.5385 68.9814 98.6672 63.047 109.483 54.0009C113.013 51.0472 115.765 47.7642 117.564 44.2444C119.149 41.152 120 37.8786 120 34.4898C120 15.4407 93.1364 0 59.9991 0C26.8635 0 4.49144e-05 15.4407 4.49144e-05 34.4898Z" fill="#10b981" /><path d="M4.49145e-05 34.4898V53.9991C4.49145e-05 57.3879 0.848973 60.6613 2.43571 63.7556C9.75425 78.0545 32.7562 88.4907 59.999 88.4907C87.2438 88.4907 110.246 78.0545 117.564 63.7556C119.149 60.6613 120 57.3879 120 53.9991V34.4898C120 37.8786 119.149 41.152 117.564 44.2444C115.765 47.7642 113.013 51.0472 109.483 54.0009C98.6672 63.047 80.5385 68.9814 59.999 68.9814C39.4615 68.9814 21.3309 63.047 10.5169 54.0009C6.98509 51.0472 4.23516 47.7642 2.43567 44.2444C0.848928 41.152 4.49145e-05 37.8786 4.49145e-05 34.4898Z" fill="url(#puck-gradient-middle-2)" /><path d="M0 53.9991V73.5102C0 92.5593 26.8634 108 59.999 108C93.1363 108 120 92.5593 120 73.5102V53.9991C120 57.3879 119.149 60.6613 117.564 63.7556C110.246 78.0545 87.2438 88.4907 59.999 88.4907C32.7562 88.4907 9.75425 78.0545 2.43571 63.7556C0.848973 60.6613 0 57.3879 0 53.9991Z" fill="url(#puck-gradient-bottom-2)" /><rect fill="transparent" y="108" width="120" height="20" /></g><text x="65" y="40" width="50" height="50" font-size="40" font-weight="bold" fill="#FFFFFF" text-anchor="middle" dominant-baseline="middle" transform="rotate(-15 65 40) scale(1, 0.8)">3</text></g></g><g><g transform="translate(-40, 138)"><g><foreignObject height="26" width="200" y="0" x="0" overflow="visible"><span style="overflow:visible;color:#6366f1;font-weight:bold;font-size:18px;line-height:1.4;width:100%;height:100%;display:flex;flex-wrap:wrap;word-break:break-word;white-space:pre-wrap;text-align:center;justify-content:center;align-content:center;align-items:center" xmlns="http://www.w3.org/1999/xhtml">Phase 1: Foundation</span></foreignObject></g><g transform="translate(0, 30)"><foreignObject height="40" width="200" y="0" x="0" overflow="visible"><span style="overflow:visible;color:#5a5a5a;font-size:14px;line-height:1.4;width:100%;height:100%;display:flex;flex-wrap:wrap;word-break:break-word;white-space:pre-wrap;text-align:center;justify-content:center;align-content:flex-start;align-items:flex-start" xmlns="http://www.w3.org/1999/xhtml">Core HR Domain Ontology, Knowledge Graph, APIs, Core UI, Multi-Model DB</span></foreignObject></g></g><g transform="translate(160, 0)"><g><foreignObject height="26" width="200" y="0" x="0" overflow="visible"><span style="overflow:visible;color:#06b6d4;font-weight:bold;font-size:18px;line-height:1.4;width:100%;height:100%;display:flex;flex-wrap:wrap;word-break:break-word;white-space:pre-wrap;text-align:center;justify-content:center;align-content:center;align-items:center" xmlns="http://www.w3.org/1999/xhtml">Phase 2: Intelligence</span></foreignObject></g><g transform="translate(0, 30)"><foreignObject height="40" width="200" y="0" x="0" overflow="visible"><span style="overflow:visible;color:#5a5a5a;font-size:14px;line-height:1.4;width:100%;height:100%;display:flex;flex-wrap:wrap;word-break:break-word;white-space:pre-wrap;text-align:center;justify-content:center;align-content:flex-start;align-items:flex-start" xmlns="http://www.w3.org/1999/xhtml">Workflow Engine, Agent Teams, Configurable UI, Full KG + GraphRAG, Vector DB</span></foreignObject></g></g><g transform="translate(360, 138)"><g><foreignObject height="26" width="200" y="0" x="0" overflow="visible"><span style="overflow:visible;color:#10b981;font-weight:bold;font-size:18px;line-height:1.4;width:100%;height:100%;display:flex;flex-wrap:wrap;word-break:break-word;white-space:pre-wrap;text-align:center;justify-content:center;align-content:center;align-items:center" xmlns="http://www.w3.org/1999/xhtml">Phase 3: Evolution</span></foreignObject></g><g transform="translate(0, 30)"><foreignObject height="40" width="200" y="0" x="0" overflow="visible"><span style="overflow:visible;color:#5a5a5a;font-size:14px;line-height:1.4;width:100%;height:100%;display:flex;flex-wrap:wrap;word-break:break-word;white-space:pre-wrap;text-align:center;justify-content:center;align-content:flex-start;align-items:flex-start" xmlns="http://www.w3.org/1999/xhtml">Generative UI, Multi-Agent Teams, MAPE-K Loops, Analytics, Auto-evolving Workflows</span></foreignObject></g></g></g></g></g></svg>