<?xml version="1.0" encoding="UTF-8"?>
<?xml-stylesheet href="https://assets.antv.antgroup.com/AlibabaPuHuiTi-Regular/result.css" type="text/css"?>
<?xml-stylesheet href="https://assets.antv.antgroup.com/AlibabaPuHuiTi-Bold/result.css" type="text/css"?>
<svg height="454" width="900" style="" font-family="Alibaba PuHuiTi" xmlns="http://www.w3.org/2000/svg" viewBox="-20 -20 900 454"><defs /><defs id="infographic-defs"><symbol id="rsc-1479996432" xmlns="http://www.w3.org/2000/svg" fill="none" stroke="currentColor" stroke-linecap="round" stroke-linejoin="round" stroke-width="2" viewBox="0 0 24 24"><path d="M4 13a8 8 0 0 1 7 7 6 6 0 0 0 3-5 9 9 0 0 0 6-8 3 3 0 0 0-3-3 9 9 0 0 0-8 6 6 6 0 0 0-5 3" /><path d="M7 14a6 6 0 0 0-3 6 6 6 0 0 0 6-3M14 9a1 1 0 1 0 2 0 1 1 0 1 0-2 0" /></symbol><symbol id="rsc-917668673" xmlns="http://www.w3.org/2000/svg" fill="none" stroke="currentColor" stroke-linecap="round" stroke-linejoin="round" stroke-width="2" viewBox="0 0 24 24"><path d="M3 7a3 3 0 0 1 3-3h12a3 3 0 0 1 3 3v2a3 3 0 0 1-3 3H6a3 3 0 0 1-3-3zM3 15a3 3 0 0 1 3-3h12a3 3 0 0 1 3 3v2a3 3 0 0 1-3 3H6a3 3 0 0 1-3-3zM7 8v.01M7 16v.01M11 8h6M11 16h6" /></symbol><symbol id="rsc-490691504" xmlns="http://www.w3.org/2000/svg" xmlns:xlink="http://www.w3.org/1999/xlink" xml:space="preserve" viewBox="0 0 512 512">
  <path d="M437.02 74.98c-48.35-48.35-112.64-74.98-181.02-74.98-68.38 0-132.67 26.63-181.02 74.98-48.35 48.35-74.98 112.64-74.98 181.02s26.63 132.67 74.98 181.02 112.64 74.98 181.02 74.98h100.42c52.56 0 95.33-42.77 95.33-95.33v-74.87h45.25a15 15 0 0 0 15-15v-70.8c0-68.38-26.63-132.67-74.98-181.02zm-.27 236.82a15 15 0 0 0-15 15v89.87a65.4 65.4 0 0 1-65.33 65.33h-100.42c-124.61 0-226-101.38-226-226s101.39-226 226-226c124.62 0 226 101.38 226 226v55.8h-45.25z" />
  <path d="M256 96.4c-88 0-159.6 71.6-159.6 159.6a15 15 0 0 0 15 15h289.2a15 15 0 0 0 15-15c0-88-71.6-159.6-159.6-159.6zm-128.74 144.6c7.46-64.42 62.35-114.6 128.74-114.6s121.28 50.18 128.74 114.6h-257.48z" />
</symbol></defs><g id="infographic-container"><g transform="translate(267.5, 0)"><g transform="translate(5.5, 0)"><foreignObject height="34" width="314" y="0" x="0" overflow="visible"><span style="overflow:visible;color:#262626;font-size:24px;line-height:1.4;width:100%;height:100%;display:flex;flex-wrap:wrap;word-break:break-word;white-space:pre-wrap;text-align:center;justify-content:center;align-content:flex-start;align-items:flex-start" xmlns="http://www.w3.org/1999/xhtml">xTalent Evolution Roadmap</span></foreignObject></g><g transform="translate(0, 42)"><foreignObject height="48" width="325" y="0" x="0" overflow="visible"><span style="overflow:visible;color:#5a5a5a;font-size:16px;line-height:1.4;width:100%;height:100%;display:flex;flex-wrap:wrap;word-break:break-word;white-space:pre-wrap;text-align:center;justify-content:center;align-content:flex-start;align-items:flex-start" xmlns="http://www.w3.org/1999/xhtml">Three Phases to the Self-Evolving Platform</span></foreignObject></g></g><g transform="translate(0, 90)"><path width="400" height="324" d="M 630 0 L 290 0 A 60 60 0 0 0 290 120 L 290 120 L 570 120 A 36 36 0 0 1 570 192 L 570 192 L 290 192 A 60 60 0 0 0 290 312 L 430 312 L 430 324 L 454 300 L 430 276 L 430 288 L 290 288 A 36 36 0 0 1 290 216 L 290 216 L 570 216 A 60 60 0 0 0 570 96 L 570 96 L 290 96 A 36 36 0 0 1 290 24 L 290 24 L 630 24 Z" fill="#666666" stroke="#666666" stroke-width="4" stroke-linecap="round" stroke-linejoin="round" /><path d="M 630 12 L 290 12 A 48 48 0 0 0 290 108 L 570 108 A 48 48 0 0 1 570 204 L 570 204 L 290 204 A 48 48 0 0 0 290 300 L 430 300" stroke="white" fill="none" stroke-width="3" stroke-dasharray="8 8" stroke-linecap="round" stroke-linejoin="round" /><g transform="translate(265, 35)"><ellipse width="50" height="50" fill="#6366f1" cx="25" cy="25" rx="25" ry="25" /><use style="color:white" href="#rsc-917668673" fill="white" height="31.819805153394633" width="31.819805153394633" y="9.090097423302684" x="9.090097423302684" /></g><g transform="translate(545, 131)"><ellipse width="50" height="50" fill="#06b6d4" cx="25" cy="25" rx="25" ry="25" /><use style="color:white" href="#rsc-490691504" fill="white" height="31.819805153394633" width="31.819805153394633" y="9.090097423302684" x="9.090097423302684" /></g><g transform="translate(265, 227)"><ellipse width="50" height="50" fill="#10b981" cx="25" cy="25" rx="25" ry="25" /><use style="color:white" href="#rsc-1479996432" fill="white" height="31.819805153394633" width="31.819805153394633" y="9.090097423302684" x="9.090097423302684" /></g><g transform="translate(325, 45)"><text width="40" height="43" x="0" y="0" fill="#6366f1" font-size="30" text-anchor="start" dominant-baseline="hanging">01</text></g><g transform="translate(495, 141)"><text width="40" height="43" x="40" y="0" fill="#06b6d4" font-size="30" text-anchor="end" dominant-baseline="hanging">02</text></g><g transform="translate(325, 237)"><text width="40" height="43" x="0" y="0" fill="#10b981" font-size="30" text-anchor="start" dominant-baseline="hanging">03</text></g><g transform="translate(0, 25)"><g><foreignObject height="26" width="200" y="0" x="0" overflow="visible"><span style="overflow:visible;color:#262626;font-weight:bold;font-size:18px;line-height:1.4;width:100%;height:100%;display:flex;flex-wrap:wrap;word-break:break-word;white-space:pre-wrap;text-align:right;justify-content:flex-end;align-content:center;align-items:center" xmlns="http://www.w3.org/1999/xhtml">Phase 1: Foundation</span></foreignObject></g><g transform="translate(0, 30)"><foreignObject height="40" width="200" y="0" x="0" overflow="visible"><span style="overflow:visible;color:#5a5a5a;font-size:14px;line-height:1.4;width:100%;height:100%;display:flex;flex-wrap:wrap;word-break:break-word;white-space:pre-wrap;text-align:right;justify-content:flex-end;align-content:flex-start;align-items:flex-start" xmlns="http://www.w3.org/1999/xhtml">Core HR Domain Ontology, Knowledge Graph, Headless APIs, Core UI, Multi-Model DB</span></foreignObject></g></g><g transform="translate(660, 121)"><g><foreignObject height="26" width="200" y="0" x="0" overflow="visible"><span style="overflow:visible;color:#262626;font-weight:bold;font-size:18px;line-height:1.4;width:100%;height:100%;display:flex;flex-wrap:wrap;word-break:break-word;white-space:pre-wrap;text-align:left;justify-content:flex-start;align-content:center;align-items:center" xmlns="http://www.w3.org/1999/xhtml">Phase 2: Intelligence</span></foreignObject></g><g transform="translate(0, 30)"><foreignObject height="40" width="200" y="0" x="0" overflow="visible"><span style="overflow:visible;color:#5a5a5a;font-size:14px;line-height:1.4;width:100%;height:100%;display:flex;flex-wrap:wrap;word-break:break-word;white-space:pre-wrap;text-align:left;justify-content:flex-start;align-content:flex-start;align-items:flex-start" xmlns="http://www.w3.org/1999/xhtml">Workflow Engine, Agent Teams, Configurable UI, Full KG + GraphRAG, Vector DB</span></foreignObject></g></g><g transform="translate(0, 217)"><g><foreignObject height="26" width="200" y="0" x="0" overflow="visible"><span style="overflow:visible;color:#262626;font-weight:bold;font-size:18px;line-height:1.4;width:100%;height:100%;display:flex;flex-wrap:wrap;word-break:break-word;white-space:pre-wrap;text-align:right;justify-content:flex-end;align-content:center;align-items:center" xmlns="http://www.w3.org/1999/xhtml">Phase 3: Evolution</span></foreignObject></g><g transform="translate(0, 30)"><foreignObject height="40" width="200" y="0" x="0" overflow="visible"><span style="overflow:visible;color:#5a5a5a;font-size:14px;line-height:1.4;width:100%;height:100%;display:flex;flex-wrap:wrap;word-break:break-word;white-space:pre-wrap;text-align:right;justify-content:flex-end;align-content:flex-start;align-items:flex-start" xmlns="http://www.w3.org/1999/xhtml">Generative UI, Multi-Agent Teams, MAPE-K Loops, Predictive Analytics, Auto-evolving Workflows</span></foreignObject></g></g><polygon x="210" y="55" width="10" height="8" fill="#6366f1" stroke="#6366f1" stroke-width="4" stroke-linecap="round" stroke-linejoin="round" transform="translate(210, 55)rotate(-90 5 4)" points="5,0 10,8 0,8" /><polygon x="640" y="151" width="10" height="8" fill="#06b6d4" stroke="#06b6d4" stroke-width="4" stroke-linecap="round" stroke-linejoin="round" transform="translate(640, 151)rotate(90 5 4)" points="5,0 10,8 0,8" /><polygon x="210" y="247" width="10" height="8" fill="#10b981" stroke="#10b981" stroke-width="4" stroke-linecap="round" stroke-linejoin="round" transform="translate(210, 247)rotate(-90 5 4)" points="5,0 10,8 0,8" /></g></g></svg>