<?xml version="1.0" encoding="UTF-8"?>
<?xml-stylesheet href="https://assets.antv.antgroup.com/AlibabaPuHuiTi-Regular/result.css" type="text/css"?>
<?xml-stylesheet href="https://assets.antv.antgroup.com/AlibabaPuHuiTi-Bold/result.css" type="text/css"?>
<svg height="810" width="586" style="" font-family="Alibaba PuHuiTi" xmlns="http://www.w3.org/2000/svg" viewBox="-20 -20 586 810"><defs /><defs id="infographic-defs"><symbol id="rsc-739686084" xmlns="http://www.w3.org/2000/svg" viewBox="0 0 512 512">
  <path d="M432.99 199.95h-22.74v-5a15 15 0 0 0-15-15h-20.05v-164.95a15 15 0 0 0-15-15h-208.4a15 15 0 0 0-15 15v164.95h-20.05a15 15 0 0 0-15 15v5h-22.74a40.34 40.34 0 0 0-40.3 40.3v82.58a15 15 0 0 0 30 0v-82.59a10.3 10.3 0 0 1 10.3-10.3h22.74v122.27h-15a15 15 0 0 0-15 15v129.79a15 15 0 0 0 15 15h58.67a15 15 0 0 0 15-15v-64.23h193.27v64.23a15 15 0 0 0 15 15h58.67a15 15 0 0 0 15-15v-129.79a15 15 0 0 0-15-15h-17.11v-122.26h22.74a10.3 10.3 0 0 1 10.3 10.3v72.17a15 15 0 0 0 30 0v-72.18a40.34 40.34 0 0 0-40.3-40.3zm-266.19-169.95h178.4v149.95h-178.4zm-36.38 452h-28.67v-99.79h28.67zm30-79.23v-20.56h193.27v20.56zm158.7-50.56h-126.24v-81.21h126.24zm93.24 129.79h-28.67v-99.79h28.67zm-63.24-129.79v-96.21a15 15 0 0 0-15-15h-156.24a15 15 0 0 0-15 15v96.21h-31.13v-142.26h248.5v142.26z" />
  <path d="M300.2 119.95h-88.4a15 15 0 0 0 0 30h88.4a15 15 0 0 0 0-30z" />
  <path d="M288.75 89.86c7.85 0 15.36-6.9 15-15-.36-8.13-6.6-15-15-15-7.85 0-15.36 6.9-15 15 .36 8.13 6.6 15 15 15z" />
  <path d="M228.75 89.86c7.85 0 15.36-6.9 15-15-.36-8.13-6.6-15-15-15-7.85 0-15.36 6.9-15 15 .36 8.13 6.6 15 15 15z" />
</symbol><symbol id="rsc-1173556601" xmlns="http://www.w3.org/2000/svg" fill="none" stroke="currentColor" stroke-linecap="round" stroke-linejoin="round" stroke-width="2" viewBox="0 0 24 24"><path d="m3 20 1.3-3.9C1.976 12.663 2.874 8.228 6.4 5.726c3.526-2.501 8.59-2.296 11.845.48 3.255 2.777 3.695 7.266 1.029 10.501S11.659 20.922 7.7 19z" /></symbol><symbol id="rsc-1672219380" xmlns="http://www.w3.org/2000/svg" fill="none" stroke="currentColor" stroke-linecap="round" stroke-linejoin="round" stroke-width="2" viewBox="0 0 24 24"><path d="M8 12a4 4 0 0 0 4 4m0-8a4 4 0 0 0-4 4M3 12h1M12 3v1M12 20v1M5.6 5.6l.7.7M6.3 17.7l-.7.7M20 7l-3 5h4l-3 5" /></symbol><symbol id="rsc-303052038" xmlns="http://www.w3.org/2000/svg" fill="none" stroke="currentColor" stroke-linecap="round" stroke-linejoin="round" stroke-width="2" viewBox="0 0 24 24"><path d="M4 7h3a1 1 0 0 0 1-1V5a2 2 0 0 1 4 0v1a1 1 0 0 0 1 1h3a1 1 0 0 1 1 1v3a1 1 0 0 0 1 1h1a2 2 0 0 1 0 4h-1a1 1 0 0 0-1 1v3a1 1 0 0 1-1 1h-3a1 1 0 0 1-1-1v-1a2 2 0 0 0-4 0v1a1 1 0 0 1-1 1H4a1 1 0 0 1-1-1v-3a1 1 0 0 1 1-1h1a2 2 0 0 0 0-4H4a1 1 0 0 1-1-1V8a1 1 0 0 1 1-1" /></symbol><symbol id="rsc-1340050541" xmlns="http://www.w3.org/2000/svg" class="icon" viewBox="0 0 1024 1024"><path d="m553.1 509.1-77.8 99.2-41.1-52.4a8 8 0 0 0-12.6 0l-99.8 127.2a7.98 7.98 0 0 0 6.3 12.9H696c6.7 0 10.4-7.7 6.3-12.9l-136.5-174a8.1 8.1 0 0 0-12.7 0M360 442a40 40 0 1 0 80 0 40 40 0 1 0-80 0m494.6-153.4L639.4 73.4c-6-6-14.1-9.4-22.6-9.4H192c-17.7 0-32 14.3-32 32v832c0 17.7 14.3 32 32 32h640c17.7 0 32-14.3 32-32V311.3c0-8.5-3.4-16.7-9.4-22.7M790.2 326H602V137.8zm1.8 562H232V136h302v216a42 42 0 0 0 42 42h216z" /></symbol></defs><g id="infographic-container"><g><g transform="translate(108.5, 0)"><foreignObject height="34" width="329" y="0" x="0" overflow="visible"><span style="overflow:visible;color:#262626;font-size:24px;line-height:1.4;width:100%;height:100%;display:flex;flex-wrap:wrap;word-break:break-word;white-space:pre-wrap;text-align:center;justify-content:center;align-content:flex-start;align-items:flex-start" xmlns="http://www.w3.org/1999/xhtml">5 Nguyên Tắc Cốt Lõi ODSA</span></foreignObject></g><g transform="translate(0, 42)"><foreignObject height="48" width="546" y="0" x="0" overflow="visible"><span style="overflow:visible;color:#5a5a5a;font-size:16px;line-height:1.4;width:100%;height:100%;display:flex;flex-wrap:wrap;word-break:break-word;white-space:pre-wrap;text-align:center;justify-content:center;align-content:flex-start;align-items:flex-start" xmlns="http://www.w3.org/1999/xhtml">Nền tảng triết lý xây dựng phần mềm lấy Ontology làm trung tâm</span></foreignObject></g></g><g transform="translate(103, 90)"><g><g><g><g transform="translate(0, 40)"><g><foreignObject height="20" width="120" y="0" x="0" overflow="visible"><span style="overflow:visible;color:#262626;font-weight:bold;font-size:14px;line-height:1.4;width:100%;height:100%;display:flex;flex-wrap:wrap;word-break:break-word;white-space:pre-wrap;text-align:right;justify-content:flex-end;align-content:center;align-items:center" xmlns="http://www.w3.org/1999/xhtml">Principle 1 — Ontology-First</span></foreignObject></g><g transform="translate(0, 20)"><foreignObject height="40" width="120" y="0" x="0" overflow="visible"><span style="overflow:visible;color:#5a5a5a;font-size:14px;line-height:1.4;width:100%;height:100%;display:flex;flex-wrap:wrap;word-break:break-word;white-space:pre-wrap;text-align:right;justify-content:flex-end;align-content:flex-start;align-items:flex-start" xmlns="http://www.w3.org/1999/xhtml">Mọi entity, relationship, lifecycle phải định nghĩa trong Ontology trước khi implement</span></foreignObject></g></g><g transform="translate(125, 66)"><ellipse width="8" height="8" fill="#1783ff" x="0" cx="4" cy="4" rx="4" ry="4" /><path d="M4,4 L30,4" stroke-width="2" stroke="#1783ff" /></g><g transform="translate(155, 0)"><polygon width="30" height="140" fill="#1783ff" points="0,0 15,10 30,0 30,130 15,140 0,130" /><g><text width="30" height="140" x="15" y="70" fill="#ffffff" font-size="16" text-anchor="middle" dominant-baseline="central" font-weight="bold">01</text></g></g><g transform="translate(210, 45)"><ellipse width="50" height="50" fill="#1783ff" cx="25" cy="25" rx="25" ry="25" /><use style="color:#ffffff" href="#rsc-1173556601" fill="#ffffff" height="31.819805153394633" width="31.819805153394633" y="9.090097423302684" x="9.090097423302684" /></g></g></g><g transform="translate(0, 135)"><g><g transform="translate(80, 45)"><ellipse width="50" height="50" fill="#00c9c9" cx="25" cy="25" rx="25" ry="25" /><use style="color:#ffffff" href="#rsc-1672219380" fill="#ffffff" height="31.819805153394633" width="31.819805153394633" y="9.090097423302684" x="9.090097423302684" /></g><g transform="translate(155, 0)"><polygon width="30" height="140" fill="#00c9c9" points="0,0 15,10 30,0 30,130 15,140 0,130" /><g><text width="30" height="140" x="15" y="70" fill="#ffffff" font-size="16" text-anchor="middle" dominant-baseline="central" font-weight="bold">02</text></g></g><g transform="translate(185, 66)"><ellipse width="8" height="8" fill="#00c9c9" x="22" cx="26" cy="4" rx="4" ry="4" /><path d="M0,4 L22,4" stroke-width="2" stroke="#00c9c9" /></g><g transform="translate(220, 40)"><g><foreignObject height="20" width="120" y="0" x="0" overflow="visible"><span style="overflow:visible;color:#262626;font-weight:bold;font-size:14px;line-height:1.4;width:100%;height:100%;display:flex;flex-wrap:wrap;word-break:break-word;white-space:pre-wrap;text-align:left;justify-content:flex-start;align-content:center;align-items:center" xmlns="http://www.w3.org/1999/xhtml">Principle 2 — Executable Knowledge</span></foreignObject></g><g transform="translate(0, 20)"><foreignObject height="40" width="120" y="0" x="0" overflow="visible"><span style="overflow:visible;color:#5a5a5a;font-size:14px;line-height:1.4;width:100%;height:100%;display:flex;flex-wrap:wrap;word-break:break-word;white-space:pre-wrap;text-align:left;justify-content:flex-start;align-content:flex-start;align-items:flex-start" xmlns="http://www.w3.org/1999/xhtml">Tài liệu phải parseable, sinh output có thể deploy, linked semantic</span></foreignObject></g></g></g></g><g transform="translate(0, 270)"><g><g transform="translate(0, 40)"><g><foreignObject height="20" width="120" y="0" x="0" overflow="visible"><span style="overflow:visible;color:#262626;font-weight:bold;font-size:14px;line-height:1.4;width:100%;height:100%;display:flex;flex-wrap:wrap;word-break:break-word;white-space:pre-wrap;text-align:right;justify-content:flex-end;align-content:center;align-items:center" xmlns="http://www.w3.org/1999/xhtml">Principle 3 — Narrative + Structured</span></foreignObject></g><g transform="translate(0, 20)"><foreignObject height="40" width="120" y="0" x="0" overflow="visible"><span style="overflow:visible;color:#5a5a5a;font-size:14px;line-height:1.4;width:100%;height:100%;display:flex;flex-wrap:wrap;word-break:break-word;white-space:pre-wrap;text-align:right;justify-content:flex-end;align-content:flex-start;align-items:flex-start" xmlns="http://www.w3.org/1999/xhtml">Kết hợp structured artifacts (LinkML/DBML/OpenAPI) + narrative docs (Markdown)</span></foreignObject></g></g><g transform="translate(125, 66)"><ellipse width="8" height="8" fill="#f0884d" x="0" cx="4" cy="4" rx="4" ry="4" /><path d="M4,4 L30,4" stroke-width="2" stroke="#f0884d" /></g><g transform="translate(155, 0)"><polygon width="30" height="140" fill="#f0884d" points="0,0 15,10 30,0 30,130 15,140 0,130" /><g><text width="30" height="140" x="15" y="70" fill="#ffffff" font-size="16" text-anchor="middle" dominant-baseline="central" font-weight="bold">03</text></g></g><g transform="translate(210, 45)"><ellipse width="50" height="50" fill="#f0884d" cx="25" cy="25" rx="25" ry="25" /><use style="color:#ffffff" href="#rsc-1340050541" fill="#ffffff" height="31.819805153394633" width="31.819805153394633" y="9.090097423302684" x="9.090097423302684" /></g></g></g><g transform="translate(0, 405)"><g><g transform="translate(80, 45)"><ellipse width="50" height="50" fill="#d580ff" cx="25" cy="25" rx="25" ry="25" /><use style="color:#ffffff" href="#rsc-739686084" fill="#ffffff" height="31.819805153394633" width="31.819805153394633" y="9.090097423302684" x="9.090097423302684" /></g><g transform="translate(155, 0)"><polygon width="30" height="140" fill="#d580ff" points="0,0 15,10 30,0 30,130 15,140 0,130" /><g><text width="30" height="140" x="15" y="70" fill="#ffffff" font-size="16" text-anchor="middle" dominant-baseline="central" font-weight="bold">04</text></g></g><g transform="translate(185, 66)"><ellipse width="8" height="8" fill="#d580ff" x="22" cx="26" cy="4" rx="4" ry="4" /><path d="M0,4 L22,4" stroke-width="2" stroke="#d580ff" /></g><g transform="translate(220, 40)"><g><foreignObject height="20" width="120" y="0" x="0" overflow="visible"><span style="overflow:visible;color:#262626;font-weight:bold;font-size:14px;line-height:1.4;width:100%;height:100%;display:flex;flex-wrap:wrap;word-break:break-word;white-space:pre-wrap;text-align:left;justify-content:flex-start;align-content:center;align-items:center" xmlns="http://www.w3.org/1999/xhtml">Principle 4 — AI-Native by Design</span></foreignObject></g><g transform="translate(0, 20)"><foreignObject height="40" width="120" y="0" x="0" overflow="visible"><span style="overflow:visible;color:#5a5a5a;font-size:14px;line-height:1.4;width:100%;height:100%;display:flex;flex-wrap:wrap;word-break:break-word;white-space:pre-wrap;text-align:left;justify-content:flex-start;align-content:flex-start;align-items:flex-start" xmlns="http://www.w3.org/1999/xhtml">Tất cả format phải AI-readable; AI Agent phải query được knowledge</span></foreignObject></g></g></g></g><g transform="translate(0, 540)"><g><g transform="translate(0, 40)"><g><foreignObject height="20" width="120" y="0" x="0" overflow="visible"><span style="overflow:visible;color:#262626;font-weight:bold;font-size:14px;line-height:1.4;width:100%;height:100%;display:flex;flex-wrap:wrap;word-break:break-word;white-space:pre-wrap;text-align:right;justify-content:flex-end;align-content:center;align-items:center" xmlns="http://www.w3.org/1999/xhtml">Principle 5 — Modular &amp; Evolvable</span></foreignObject></g><g transform="translate(0, 20)"><foreignObject height="40" width="120" y="0" x="0" overflow="visible"><span style="overflow:visible;color:#5a5a5a;font-size:14px;line-height:1.4;width:100%;height:100%;display:flex;flex-wrap:wrap;word-break:break-word;white-space:pre-wrap;text-align:right;justify-content:flex-end;align-content:flex-start;align-items:flex-start" xmlns="http://www.w3.org/1999/xhtml">Mỗi module có ontology riêng; Ontology là living artifact, không bao giờ outdated</span></foreignObject></g></g><g transform="translate(125, 66)"><ellipse width="8" height="8" fill="#7863ff" x="0" cx="4" cy="4" rx="4" ry="4" /><path d="M4,4 L30,4" stroke-width="2" stroke="#7863ff" /></g><g transform="translate(155, 0)"><polygon width="30" height="140" fill="#7863ff" points="0,0 15,10 30,0 30,130 15,140 0,130" /><g><text width="30" height="140" x="15" y="70" fill="#ffffff" font-size="16" text-anchor="middle" dominant-baseline="central" font-weight="bold">05</text></g></g><g transform="translate(210, 45)"><ellipse width="50" height="50" fill="#7863ff" cx="25" cy="25" rx="25" ry="25" /><use style="color:#ffffff" href="#rsc-303052038" fill="#ffffff" height="31.819805153394633" width="31.819805153394633" y="9.090097423302684" x="9.090097423302684" /></g></g></g></g></g></g></svg>