<?xml version="1.0" encoding="UTF-8"?>
<?xml-stylesheet href="https://assets.antv.antgroup.com/AlibabaPuHuiTi-Regular/result.css" type="text/css"?>
<?xml-stylesheet href="https://assets.antv.antgroup.com/AlibabaPuHuiTi-Bold/result.css" type="text/css"?>
<svg height="434" width="808" style="" font-family="Alibaba PuHuiTi" xmlns="http://www.w3.org/2000/svg" viewBox="-20 -20 808 434"><defs /><defs id="infographic-defs"><symbol id="rsc-302483513" xmlns="http://www.w3.org/2000/svg" fill="none" stroke="currentColor" stroke-linecap="round" stroke-linejoin="round" stroke-width="2" viewBox="0 0 24 24"><path d="M14 6a2 2 0 1 0-4 0 2 2 0 0 0 4 0M7 18a2 2 0 1 0-4 0 2 2 0 0 0 4 0M21 18a2 2 0 1 0-4 0 2 2 0 0 0 4 0M7 18h10M18 16l-5-8M11 8l-5 8" /></symbol><symbol id="rsc-695510523" xmlns="http://www.w3.org/2000/svg" fill="none" stroke="currentColor" stroke-linecap="round" stroke-linejoin="round" stroke-width="2" viewBox="0 0 24 24"><path d="M19.875 6.27A2.23 2.23 0 0 1 21 8.218v7.284c0 .809-.443 1.555-1.158 1.948l-6.75 4.27a2.27 2.27 0 0 1-2.184 0l-6.75-4.27A2.23 2.23 0 0 1 3 15.502V8.217c0-.809.443-1.554 1.158-1.947l6.75-3.98a2.33 2.33 0 0 1 2.25 0l6.75 3.98z" /><path d="M10 8v3a1 1 0 0 0 1 1h3M14 8v8" /></symbol><symbol id="rsc-498997018" xmlns="http://www.w3.org/2000/svg" fill="none" stroke="currentColor" stroke-linecap="round" stroke-linejoin="round" stroke-width="2" viewBox="0 0 24 24"><path d="m12 12-6.5 5.5M12 3v9h9" /><path d="M3 12a9 9 0 1 0 18 0 9 9 0 1 0-18 0" /></symbol><symbol id="rsc-105970008" xmlns="http://www.w3.org/2000/svg" fill="none" stroke="currentColor" stroke-linecap="round" stroke-linejoin="round" stroke-width="2" viewBox="0 0 24 24"><path d="m10 10 2-2v8" /><path d="M12 3c7.2 0 9 1.8 9 9s-1.8 9-9 9-9-1.8-9-9 1.8-9 9-9" /></symbol></defs><defs><linearGradient id="#1783ff-ribbon" x1="0%" y1="0%" x2="100%" y2="0%"><stop offset="0%" stop-color="#1783ff" /><stop offset="100%" stop-color="#005ec9" /></linearGradient><linearGradient id="#00c9c9-ribbon" x1="0%" y1="0%" x2="100%" y2="0%"><stop offset="0%" stop-color="#00c9c9" /><stop offset="100%" stop-color="#007c7c" /></linearGradient><linearGradient id="#f0884d-ribbon" x1="0%" y1="0%" x2="100%" y2="0%"><stop offset="0%" stop-color="#f0884d" /><stop offset="100%" stop-color="#de5c13" /></linearGradient><linearGradient id="#d580ff-ribbon" x1="0%" y1="0%" x2="100%" y2="0%"><stop offset="0%" stop-color="#d580ff" /><stop offset="100%" stop-color="#bc33ff" /></linearGradient></defs><g id="infographic-container"><g transform="translate(63, 0)"><g transform="translate(143.5, 0)"><foreignObject height="34" width="355" y="0" x="0" overflow="visible"><span style="overflow:visible;color:#262626;font-size:24px;line-height:1.4;width:100%;height:100%;display:flex;flex-wrap:wrap;word-break:break-word;white-space:pre-wrap;text-align:center;justify-content:center;align-content:flex-start;align-items:flex-start" xmlns="http://www.w3.org/1999/xhtml">4 Nguyên Tắc Thiết Kế ODDS</span></foreignObject></g><g transform="translate(0, 42)"><foreignObject height="48" width="642" y="0" x="0" overflow="visible"><span style="overflow:visible;color:#5a5a5a;font-size:16px;line-height:1.4;width:100%;height:100%;display:flex;flex-wrap:wrap;word-break:break-word;white-space:pre-wrap;text-align:center;justify-content:center;align-content:flex-start;align-items:flex-start" xmlns="http://www.w3.org/1999/xhtml">Governance rules đảm bảo tài liệu vừa human-readable vừa machine-readable</span></foreignObject></g></g><g transform="translate(0, 90)"><g><g><g><rect x="0" y="0" width="240" height="140" fill="#ffffff" stroke="#1783ff1a" stroke-width="1" rx="8" ry="8" /><rect x="0" y="0" width="240" height="32" fill="url(##1783ff-ribbon)" rx="8" ry="8" /><rect x="0" y="8" width="240" height="24" fill="url(##1783ff-ribbon)" /><path x="220" y="32" width="20" height="8" fill="#004696" d="M0,0 L20,0 L15,8 L5,8 Z" transform="translate(220, 32)" /></g><use style="color:#1783ff" href="#rsc-105970008" fill="#1783ff" height="28" width="28" y="44" x="12" /><g transform="translate(52, 44)"><foreignObject height="28" width="176" y="0" x="0" overflow="visible"><span style="overflow:visible;color:#262626;font-weight:bold;font-size:18px;line-height:1;width:100%;height:100%;display:flex;flex-wrap:wrap;word-break:break-word;white-space:pre-wrap;text-align:left;justify-content:flex-start;align-content:center;align-items:center" xmlns="http://www.w3.org/1999/xhtml">1. Concept Granularity</span></foreignObject></g><g transform="translate(12, 77)"><foreignObject height="59" width="216" y="0" x="0" overflow="visible"><span style="overflow:visible;color:#5a5a5a;font-size:14px;line-height:1.4;width:100%;height:100%;display:flex;flex-wrap:wrap;word-break:break-word;white-space:pre-wrap;text-align:left;justify-content:flex-start;align-content:flex-start;align-items:flex-start" xmlns="http://www.w3.org/1999/xhtml">Chỉ ontology/concepts/ tách nhỏ (1 class = 1 file). Lý do: thay đổi thường xuyên, AI chỉnh sửa độc lập</span></foreignObject></g><use style="color:#ffffff" href="#rsc-105970008" fill="#ffffff" height="16" width="16" y="6" x="220" /></g><g transform="translate(264, 0)"><g><rect x="0" y="0" width="240" height="140" fill="#ffffff" stroke="#00c9c91a" stroke-width="1" rx="8" ry="8" /><rect x="0" y="0" width="240" height="32" fill="url(##00c9c9-ribbon)" rx="8" ry="8" /><rect x="0" y="8" width="240" height="24" fill="url(##00c9c9-ribbon)" /><path x="220" y="32" width="20" height="8" fill="#004949" d="M0,0 L20,0 L15,8 L5,8 Z" transform="translate(220, 32)" /></g><use style="color:#00c9c9" href="#rsc-302483513" fill="#00c9c9" height="28" width="28" y="44" x="12" /><g transform="translate(52, 44)"><foreignObject height="28" width="176" y="0" x="0" overflow="visible"><span style="overflow:visible;color:#262626;font-weight:bold;font-size:18px;line-height:1;width:100%;height:100%;display:flex;flex-wrap:wrap;word-break:break-word;white-space:pre-wrap;text-align:left;justify-content:flex-start;align-content:center;align-items:center" xmlns="http://www.w3.org/1999/xhtml">2. Sub-module Cohesion</span></foreignObject></g><g transform="translate(12, 77)"><foreignObject height="59" width="216" y="0" x="0" overflow="visible"><span style="overflow:visible;color:#5a5a5a;font-size:14px;line-height:1.4;width:100%;height:100%;display:flex;flex-wrap:wrap;word-break:break-word;white-space:pre-wrap;text-align:left;justify-content:flex-start;align-content:flex-start;align-items:flex-start" xmlns="http://www.w3.org/1999/xhtml">Lifecycle, rules, events gom theo sub-module: 1 sub-module = 1 file — tránh fragmentation</span></foreignObject></g><use style="color:#ffffff" href="#rsc-302483513" fill="#ffffff" height="16" width="16" y="6" x="220" /></g><g transform="translate(528, 0)"><g><rect x="0" y="0" width="240" height="140" fill="#ffffff" stroke="#f0884d1a" stroke-width="1" rx="8" ry="8" /><rect x="0" y="0" width="240" height="32" fill="url(##f0884d-ribbon)" rx="8" ry="8" /><rect x="0" y="8" width="240" height="24" fill="url(##f0884d-ribbon)" /><path x="220" y="32" width="20" height="8" fill="#af490f" d="M0,0 L20,0 L15,8 L5,8 Z" transform="translate(220, 32)" /></g><use style="color:#f0884d" href="#rsc-498997018" fill="#f0884d" height="28" width="28" y="44" x="12" /><g transform="translate(52, 44)"><foreignObject height="28" width="176" y="0" x="0" overflow="visible"><span style="overflow:visible;color:#262626;font-weight:bold;font-size:18px;line-height:1;width:100%;height:100%;display:flex;flex-wrap:wrap;word-break:break-word;white-space:pre-wrap;text-align:left;justify-content:flex-start;align-content:center;align-items:center" xmlns="http://www.w3.org/1999/xhtml">3. Canonical API Only</span></foreignObject></g><g transform="translate(12, 77)"><foreignObject height="59" width="216" y="0" x="0" overflow="visible"><span style="overflow:visible;color:#5a5a5a;font-size:14px;line-height:1.4;width:100%;height:100%;display:flex;flex-wrap:wrap;word-break:break-word;white-space:pre-wrap;text-align:left;justify-content:flex-start;align-content:flex-start;align-items:flex-start" xmlns="http://www.w3.org/1999/xhtml">Chỉ mô tả resource APIs và state transition APIs — không có UI/workflow/orchestration APIs</span></foreignObject></g><use style="color:#ffffff" href="#rsc-498997018" fill="#ffffff" height="16" width="16" y="6" x="220" /></g><g transform="translate(0, 164)"><g><rect x="0" y="0" width="240" height="140" fill="#ffffff" stroke="#d580ff1a" stroke-width="1" rx="8" ry="8" /><rect x="0" y="0" width="240" height="32" fill="url(##d580ff-ribbon)" rx="8" ry="8" /><rect x="0" y="8" width="240" height="24" fill="url(##d580ff-ribbon)" /><path x="220" y="32" width="20" height="8" fill="#ab00ff" d="M0,0 L20,0 L15,8 L5,8 Z" transform="translate(220, 32)" /></g><use style="color:#d580ff" href="#rsc-695510523" fill="#d580ff" height="28" width="28" y="44" x="12" /><g transform="translate(52, 44)"><foreignObject height="28" width="176" y="0" x="0" overflow="visible"><span style="overflow:visible;color:#262626;font-weight:bold;font-size:18px;line-height:1;width:100%;height:100%;display:flex;flex-wrap:wrap;word-break:break-word;white-space:pre-wrap;text-align:left;justify-content:flex-start;align-content:center;align-items:center" xmlns="http://www.w3.org/1999/xhtml">4. AI Context Boundaries</span></foreignObject></g><g transform="translate(12, 77)"><foreignObject height="59" width="216" y="0" x="0" overflow="visible"><span style="overflow:visible;color:#5a5a5a;font-size:14px;line-height:1.4;width:100%;height:100%;display:flex;flex-wrap:wrap;word-break:break-word;white-space:pre-wrap;text-align:left;justify-content:flex-start;align-content:flex-start;align-items:flex-start" xmlns="http://www.w3.org/1999/xhtml">Mỗi file: self-contained, ≤ 800 lines, represent 1 domain context rõ ràng</span></foreignObject></g><use style="color:#ffffff" href="#rsc-695510523" fill="#ffffff" height="16" width="16" y="6" x="220" /></g></g></g></g></svg>