<?xml version="1.0" encoding="UTF-8"?>
<?xml-stylesheet href="https://assets.antv.antgroup.com/AlibabaPuHuiTi-Regular/result.css" type="text/css"?>
<?xml-stylesheet href="https://assets.antv.antgroup.com/AlibabaPuHuiTi-Bold/result.css" type="text/css"?>
<svg height="314" width="688" style="" font-family="Alibaba PuHuiTi" xmlns="http://www.w3.org/2000/svg" viewBox="-20 -20 688 314"><defs /><defs id="infographic-defs"><symbol id="rsc-28303820" xmlns="http://www.w3.org/2000/svg" fill="none" stroke="currentColor" stroke-linecap="round" stroke-linejoin="round" stroke-width="2" viewBox="0 0 24 24"><path d="M8 16v-6a2 2 0 1 1 4 0v6M8 13h4M16 8v8" /></symbol><symbol id="rsc-833342195" xmlns="http://www.w3.org/2000/svg" fill="none" stroke="currentColor" stroke-linecap="round" stroke-linejoin="round" stroke-width="2" viewBox="0 0 24 24"><path d="M15 12h.01M12 12h.01M9 12h.01M6 19a2 2 0 0 1-2-2v-4l-1-1 1-1V7a2 2 0 0 1 2-2M18 19a2 2 0 0 0 2-2v-4l1-1-1-1V7a2 2 0 0 0-2-2" /></symbol><symbol id="rsc-1293614735" xmlns="http://www.w3.org/2000/svg" viewBox="0 0 512 512">
  <path d="M482 385h-19v-114c0-16.87-13.89-30-29.73-30h-162.27v-82h97a15 15 0 0 0 15-15v-129a15 15 0 0 0-15-15h-224a15 15 0 0 0-15 15v129a15 15 0 0 0 15 15h97v82h-162a30.03 30.03 0 0 0-30 30v114h-19a30.03 30.03 0 0 0-30 30v67c0 16.54 13.46 30 30 30h67c16.54 0 30-13.46 30-30v-67a30.03 30.03 0 0 0-30-30h-18v-114h162v114h-18a30.03 30.03 0 0 0-30 30v67c0 16.54 13.46 30 30 30h66c16.54 0 30-13.46 30-30v-67a30.03 30.03 0 0 0-30-30h-18v-114h162v114h-18a30.03 30.03 0 0 0-30 30v67c0 16.54 13.46 30 30 30h67c16.54 0 30-13.46 30-30v-67a30.03 30.03 0 0 0-30-30zm-323-355h194v99h-194zm-61.98 452c-.1.02-6.94 0-67.02 0v-67h67zm192 0c-.1.02-6.12 0-66.02 0v-67h66zm192.98 0h-67v-67h67c.02 68.45.1 67 0 67z" />
  <path d="M319 80a15 15 0 0 0-15-15h-96a15 15 0 0 0 0 30h96a15 15 0 0 0 15-15z" />
</symbol><symbol id="rsc-1179096837" xmlns="http://www.w3.org/2000/svg" fill="none" stroke="currentColor" stroke-linecap="round" stroke-linejoin="round" stroke-width="2" viewBox="0 0 24 24"><path d="M14 3v4a1 1 0 0 0 1 1h4" /><path d="M17 21H7a2 2 0 0 1-2-2V5a2 2 0 0 1 2-2h7l5 5v11a2 2 0 0 1-2 2M9 17h6M9 13h6" /></symbol><symbol id="rsc-2105003191" xmlns="http://www.w3.org/2000/svg" viewBox="0 0 512 512">
  <path d="M511.91 135a15 15 0 0 0-15-15h-150.89a49.13 49.13 0 0 0 3.98-19.41v-51.18a49.47 49.47 0 0 0-49.41-49.41h-251.18a49.47 49.47 0 0 0-49.41 49.41v51.18c0 13.37 5.35 25.5 14 34.41a49.23 49.23 0 0 0-14 34.41v51.18c0 13.37 5.35 25.5 14 34.41a49.23 49.23 0 0 0-14 34.4v51.2a49.47 49.47 0 0 0 49.4 49.4h140.6v77c0 24.81 20.19 45 45 45h261.91.09a15 15 0 0 0 15-15zm-30 287h-201v-272h201zm-451.91-201.4v-51.2c0-10.7 8.7-19.4 19.4-19.4h.01 143.17a44.79 44.79 0 0 0-2.58 15v75h-140.6a19.43 19.43 0 0 1-19.4-19.4zm190-55.6c0-8.27 6.73-15 15-15h15.9v272h-15.9c-5.26 0-10.3.92-15 2.58zm-190-115.59a19.43 19.43 0 0 1 19.41-19.41h251.18c10.7 0 19.41 8.7 19.41 19.41v51.18c0 10.7-8.7 19.41-19.41 19.41h-251.18a19.43 19.43 0 0 1-19.41-19.41zm19.4 310.59a19.43 19.43 0 0 1-19.4-19.4v-51.2c0-10.7 8.7-19.4 19.4-19.4h140.6v90zm185.6 122c-8.27 0-15-6.73-15-15s6.73-15 15-15h246.91v30z" />
  <path d="M381.5 372.5a15 15 0 0 0 15-15v-83a15 15 0 0 0-30 0v83a15 15 0 0 0 15 15z" />
  <path d="M216 90h59a15 15 0 0 0 0-30h-59a15 15 0 0 0 0 30z" />
  <circle cx="75" cy="75" r="15" />
  <circle cx="75" cy="195" r="15" />
  <circle cx="75" cy="315" r="15" />
  <circle cx="381.5" cy="214.5" r="15" />
</symbol></defs><defs><radialGradient id="#1783ff-badge" cx="50%" cy="50%" r="50%"><stop offset="0%" stop-color="#1783ff" /><stop offset="100%" stop-color="#0052b0" /></radialGradient><radialGradient id="#00c9c9-badge" cx="50%" cy="50%" r="50%"><stop offset="0%" stop-color="#00c9c9" /><stop offset="100%" stop-color="#006363" /></radialGradient><radialGradient id="#f0884d-badge" cx="50%" cy="50%" r="50%"><stop offset="0%" stop-color="#f0884d" /><stop offset="100%" stop-color="#c65211" /></radialGradient><radialGradient id="#d580ff-badge" cx="50%" cy="50%" r="50%"><stop offset="0%" stop-color="#d580ff" /><stop offset="100%" stop-color="#b31aff" /></radialGradient><radialGradient id="#7863ff-badge" cx="50%" cy="50%" r="50%"><stop offset="0%" stop-color="#7863ff" /><stop offset="100%" stop-color="#2200fc" /></radialGradient></defs><g id="infographic-container"><g transform="translate(22, 0)"><g transform="translate(105, 0)"><foreignObject height="34" width="394" y="0" x="0" overflow="visible"><span style="overflow:visible;color:#262626;font-size:24px;line-height:1.4;width:100%;height:100%;display:flex;flex-wrap:wrap;word-break:break-word;white-space:pre-wrap;text-align:center;justify-content:center;align-content:flex-start;align-items:flex-start" xmlns="http://www.w3.org/1999/xhtml">Vấn Đề: Knowledge Phân Mảnh</span></foreignObject></g><g transform="translate(0, 42)"><foreignObject height="48" width="604" y="0" x="0" overflow="visible"><span style="overflow:visible;color:#5a5a5a;font-size:16px;line-height:1.4;width:100%;height:100%;display:flex;flex-wrap:wrap;word-break:break-word;white-space:pre-wrap;text-align:center;justify-content:center;align-content:flex-start;align-items:flex-start" xmlns="http://www.w3.org/1999/xhtml">5 nguồn lưu trữ không liên kết khiến AI mù và knowledge transfer tốn kém</span></foreignObject></g></g><g transform="translate(0, 90)"><g><g><rect x="0" y="0" width="200" height="80" fill="#1783ff1a" rx="8" ry="8" /><ellipse x="8" y="8" width="32" height="32" fill="url(##1783ff-badge)" cx="24" cy="24" rx="16" ry="16" /><use style="color:#ffffff" href="#rsc-1179096837" fill="#ffffff" height="24" width="24" y="12" x="12" /><g transform="translate(48, 8)"><g transform="translate(0, 10)"><foreignObject height="20" width="144" y="0" x="0" overflow="visible"><span style="overflow:visible;color:#262626;font-weight:bold;font-size:14px;line-height:1.4;width:100%;height:100%;display:flex;flex-wrap:wrap;word-break:break-word;white-space:pre-wrap;text-align:left;justify-content:flex-start;align-content:center;align-items:center" xmlns="http://www.w3.org/1999/xhtml">PRD / BRD (Word/PDF)</span></foreignObject></g></g><g transform="translate(8, 48)"><foreignObject height="27" width="184" y="0" x="0" overflow="visible"><span style="overflow:visible;color:#5a5a5a;font-size:11px;line-height:1.2;width:100%;height:100%;display:flex;flex-wrap:wrap;word-break:break-word;white-space:pre-wrap;text-align:left;justify-content:flex-start;align-content:flex-start;align-items:flex-start" xmlns="http://www.w3.org/1999/xhtml">Static text — AI không đọc được semantic, outdated nhanh</span></foreignObject></g></g><g transform="translate(224, 0)"><rect x="0" y="0" width="200" height="80" fill="#00c9c91a" rx="8" ry="8" /><ellipse x="8" y="8" width="32" height="32" fill="url(##00c9c9-badge)" cx="24" cy="24" rx="16" ry="16" /><use style="color:#ffffff" href="#rsc-2105003191" fill="#ffffff" height="24" width="24" y="12" x="12" /><g transform="translate(48, 8)"><g transform="translate(0, 10)"><foreignObject height="20" width="144" y="0" x="0" overflow="visible"><span style="overflow:visible;color:#262626;font-weight:bold;font-size:14px;line-height:1.4;width:100%;height:100%;display:flex;flex-wrap:wrap;word-break:break-word;white-space:pre-wrap;text-align:left;justify-content:flex-start;align-content:center;align-items:center" xmlns="http://www.w3.org/1999/xhtml">DB Schema (SQL)</span></foreignObject></g></g><g transform="translate(8, 48)"><foreignObject height="27" width="184" y="0" x="0" overflow="visible"><span style="overflow:visible;color:#5a5a5a;font-size:11px;line-height:1.2;width:100%;height:100%;display:flex;flex-wrap:wrap;word-break:break-word;white-space:pre-wrap;text-align:left;justify-content:flex-start;align-content:flex-start;align-items:flex-start" xmlns="http://www.w3.org/1999/xhtml">Chỉ có cấu trúc kỹ thuật — mất business meaning hoàn toàn</span></foreignObject></g></g><g transform="translate(448, 0)"><rect x="0" y="0" width="200" height="80" fill="#f0884d1a" rx="8" ry="8" /><ellipse x="8" y="8" width="32" height="32" fill="url(##f0884d-badge)" cx="24" cy="24" rx="16" ry="16" /><use style="color:#ffffff" href="#rsc-833342195" fill="#ffffff" height="24" width="24" y="12" x="12" /><g transform="translate(48, 8)"><g transform="translate(0, 10)"><foreignObject height="20" width="144" y="0" x="0" overflow="visible"><span style="overflow:visible;color:#262626;font-weight:bold;font-size:14px;line-height:1.4;width:100%;height:100%;display:flex;flex-wrap:wrap;word-break:break-word;white-space:pre-wrap;text-align:left;justify-content:flex-start;align-content:center;align-items:center" xmlns="http://www.w3.org/1999/xhtml">Source Code</span></foreignObject></g></g><g transform="translate(8, 48)"><foreignObject height="27" width="184" y="0" x="0" overflow="visible"><span style="overflow:visible;color:#5a5a5a;font-size:11px;line-height:1.2;width:100%;height:100%;display:flex;flex-wrap:wrap;word-break:break-word;white-space:pre-wrap;text-align:left;justify-content:flex-start;align-content:flex-start;align-items:flex-start" xmlns="http://www.w3.org/1999/xhtml">Chỉ dev đọc được — không có context business cao hơn</span></foreignObject></g></g><g transform="translate(0, 104)"><rect x="0" y="0" width="200" height="80" fill="#d580ff1a" rx="8" ry="8" /><ellipse x="8" y="8" width="32" height="32" fill="url(##d580ff-badge)" cx="24" cy="24" rx="16" ry="16" /><use style="color:#ffffff" href="#rsc-1293614735" fill="#ffffff" height="24" width="24" y="12" x="12" /><g transform="translate(48, 8)"><g transform="translate(0, 10)"><foreignObject height="20" width="144" y="0" x="0" overflow="visible"><span style="overflow:visible;color:#262626;font-weight:bold;font-size:14px;line-height:1.4;width:100%;height:100%;display:flex;flex-wrap:wrap;word-break:break-word;white-space:pre-wrap;text-align:left;justify-content:flex-start;align-content:center;align-items:center" xmlns="http://www.w3.org/1999/xhtml">ERD Diagram</span></foreignObject></g></g><g transform="translate(8, 48)"><foreignObject height="27" width="184" y="0" x="0" overflow="visible"><span style="overflow:visible;color:#5a5a5a;font-size:11px;line-height:1.2;width:100%;height:100%;display:flex;flex-wrap:wrap;word-break:break-word;white-space:pre-wrap;text-align:left;justify-content:flex-start;align-content:flex-start;align-items:flex-start" xmlns="http://www.w3.org/1999/xhtml">Outdated nhanh chóng — không liên kết được với document</span></foreignObject></g></g><g transform="translate(224, 104)"><rect x="0" y="0" width="200" height="80" fill="#7863ff1a" rx="8" ry="8" /><ellipse x="8" y="8" width="32" height="32" fill="url(##7863ff-badge)" cx="24" cy="24" rx="16" ry="16" /><use style="color:#ffffff" href="#rsc-28303820" fill="#ffffff" height="24" width="24" y="12" x="12" /><g transform="translate(48, 8)"><g transform="translate(0, 10)"><foreignObject height="20" width="144" y="0" x="0" overflow="visible"><span style="overflow:visible;color:#262626;font-weight:bold;font-size:14px;line-height:1.4;width:100%;height:100%;display:flex;flex-wrap:wrap;word-break:break-word;white-space:pre-wrap;text-align:left;justify-content:flex-start;align-content:center;align-items:center" xmlns="http://www.w3.org/1999/xhtml">API Spec (Swagger)</span></foreignObject></g></g><g transform="translate(8, 48)"><foreignObject height="27" width="184" y="0" x="0" overflow="visible"><span style="overflow:visible;color:#5a5a5a;font-size:11px;line-height:1.2;width:100%;height:100%;display:flex;flex-wrap:wrap;word-break:break-word;white-space:pre-wrap;text-align:left;justify-content:flex-start;align-content:flex-start;align-items:flex-start" xmlns="http://www.w3.org/1999/xhtml">Chỉ mô tả technical contract — mất intent và business context</span></foreignObject></g></g></g></g></g></svg>